<?xml version="1.0" encoding="UTF-8"?>
<svg version="1.1" xmlns="http://www.w3.org/2000/svg" width="736" height="1104">
<path d="M0 0 C242.88 0 485.76 0 736 0 C736 364.32 736 728.64 736 1104 C493.12 1104 250.24 1104 0 1104 C0 739.68 0 375.36 0 0 Z " fill="#062E51" transform="translate(0,0)"/>
<path d="M0 0 C0 247.17 0 494.34 0 749 C-242.88 749 -485.76 749 -736 749 C-736 610.4 -736 471.8 -736 329 C-730.58160612 329.67729924 -725.67657811 330.43465885 -720.4140625 331.671875 C-719.37164398 331.91587036 -719.37164398 331.91587036 -718.3081665 332.16479492 C-716.07928476 332.68841827 -713.85207352 333.21874287 -711.625 333.75 C-710.8636676 333.93018677 -710.10233521 334.11037354 -709.31793213 334.29602051 C-699.41504303 336.64074839 -689.56894583 339.10681756 -679.7890625 341.92578125 C-675.96081936 343.01110791 -672.11450946 343.99249875 -668.25 344.9375 C-653.91316224 348.4606997 -639.69092678 352.43795201 -625.54296875 356.65234375 C-622.09147305 357.6802333 -618.63480033 358.68912455 -615.17578125 359.69140625 C-605.02408098 362.63340597 -594.89474858 365.6156017 -584.8203125 368.8125 C-582.05430388 369.68277015 -579.27805884 370.50808705 -576.4921875 371.3125 C-575.73220459 371.53212402 -574.97222168 371.75174805 -574.18920898 371.97802734 C-572.74196072 372.39385819 -571.29363257 372.80595866 -569.84399414 373.21337891 C-565.39230982 374.49210611 -561.25154382 376.14174096 -557 378 C-554.48432066 378.91799278 -551.9683689 379.8142387 -549.4375 380.6875 C-547.93201182 381.21404428 -546.42681809 381.74143102 -544.921875 382.26953125 C-543.72788086 382.688396 -543.72788086 382.688396 -542.50976562 383.11572266 C-527.52867565 388.39407946 -512.69426627 393.96863587 -498 400 C-497.2687793 400.2980957 -496.53755859 400.59619141 -495.78417969 400.90332031 C-485.4392998 405.13171421 -475.21342671 409.63225689 -465.01333618 414.19696045 C-463.64864625 414.8070694 -462.28308837 415.41524131 -460.91659546 416.02130127 C-452.96202457 419.55440512 -445.37694013 423.35156555 -438 428 C-436.22417437 429.02786807 -434.43678305 430.03692595 -432.625 431 C-431.83351563 431.433125 -431.04203125 431.86625 -430.2265625 432.3125 C-428.02886703 433.24593803 -428.02886703 433.24593803 -426.06211853 432.23005676 C-423.98254999 430.98959104 -422.48097491 429.72237116 -420.77954102 428.0065918 C-420.17533829 427.40223801 -419.57113556 426.79788422 -418.94862366 426.17521667 C-417.98598854 425.1970977 -417.98598854 425.1970977 -417.00390625 424.19921875 C-416.33334702 423.52582962 -415.66278778 422.85244049 -414.97190857 422.15864563 C-412.83069241 420.00625258 -410.69652308 417.84702262 -408.5625 415.6875 C-407.13001983 414.24498324 -405.69708203 412.80292078 -404.26367188 411.36132812 C-401.04232672 408.12008613 -397.82562175 404.87431663 -394.61282349 401.62460327 C-393.15459433 400.15572346 -391.68523619 398.6979125 -390.21459961 397.24145508 C-387.63294755 394.62849647 -385.34487272 391.82587225 -383 389 C-380.8125 386.625 -380.8125 386.625 -379 385 C-378.34 385 -377.68 385 -377 385 C-376.74244431 384.41679993 -376.48488861 383.83359985 -376.2195282 383.23272705 C-374.89414842 380.80620565 -373.45160702 379.21724072 -371.48754883 377.27636719 C-370.76952591 376.56172302 -370.05150299 375.84707886 -369.3117218 375.11077881 C-368.53467392 374.34719055 -367.75762604 373.58360229 -366.95703125 372.796875 C-365.75429817 371.60194427 -365.75429817 371.60194427 -364.52726746 370.38287354 C-361.96037582 367.8337925 -359.38692442 365.2914714 -356.8125 362.75 C-354.25675608 360.22200181 -351.7025261 357.69252167 -349.15129089 355.15997314 C-347.5646798 353.58547555 -345.97540406 352.01365686 -344.38301086 350.44500732 C-341.00268154 347.09476404 -337.71136255 343.72740331 -334.61206055 340.11425781 C-330.61862926 335.47644901 -326.29979318 331.1863884 -321.95483398 326.87966919 C-320.46285757 325.40068091 -318.97422447 323.91839498 -317.48632812 322.43530273 C-313.79331846 318.75552613 -310.09482888 315.08127373 -306.39648438 311.40686035 C-303.25929696 308.28954371 -300.12426398 305.17008912 -296.99194336 302.04788208 C-295.53902092 300.60134931 -294.08307719 299.15790833 -292.62695312 297.71459961 C-288.15860601 293.26269204 -283.85446091 288.75976654 -279.74835205 283.97320557 C-276.32772854 280.11265966 -272.62567431 276.5252202 -268.9609375 272.8984375 C-267.69511337 271.6382933 -267.69511337 271.6382933 -266.40371704 270.35269165 C-263.72990623 267.6910057 -261.05287196 265.03259968 -258.375 262.375 C-254.83822886 258.86489752 -251.30483107 255.3514492 -247.7734375 251.8359375 C-246.96812592 251.03892426 -246.16281433 250.24191101 -245.33309937 249.42074585 C-240.63365689 244.74214992 -240.63365689 244.74214992 -236.26416016 239.76025391 C-233.98134645 236.97725932 -231.57440759 234.51509798 -229 232 C-227.70369485 230.70646288 -226.40892636 229.41138497 -225.11523438 228.11523438 C-215.37174479 218.37174479 -205.62825521 208.62825521 -195.88476562 198.88476562 C-195.21074707 198.20994141 -194.53672852 197.53511719 -193.84228516 196.83984375 C-192.70724869 195.70631144 -191.56948165 194.57549635 -190.42724609 193.44921875 C-188.55180289 191.59756696 -186.87020718 189.82213576 -185.3125 187.6875 C-184.879375 187.130625 -184.44625 186.57375 -184 186 C-183.34 186 -182.68 186 -182 186 C-181.6118084 185.12383278 -181.6118084 185.12383278 -181.21577454 184.22996521 C-179.90524831 181.82620712 -178.48751278 180.24656626 -176.54760742 178.32055664 C-175.84314987 177.61625015 -175.13869232 176.91194366 -174.41288757 176.18629456 C-173.65143936 175.43516891 -172.88999115 174.68404327 -172.10546875 173.91015625 C-171.3210994 173.12861679 -170.53673004 172.34707733 -169.72859192 171.54185486 C-167.21955151 169.04400182 -164.70366023 166.55317891 -162.1875 164.0625 C-160.50409855 162.38913324 -158.82115052 160.71531021 -157.13867188 159.04101562 C-154.04211176 155.96078079 -150.94297882 152.88318786 -147.84057617 149.80883789 C-141.49251678 143.57258905 -141.49251678 143.57258905 -135.5 137 C-132.78384361 133.86552018 -129.97439917 130.89401 -127 128 C-126.278125 127.236875 -125.55625 126.47375 -124.8125 125.6875 C-123 124 -123 124 -121 124 C-120.79673096 123.47003418 -120.59346191 122.94006836 -120.3840332 122.39404297 C-118.40943946 118.97847299 -115.65522051 116.43080798 -112.85546875 113.6953125 C-112.24866776 113.09371307 -111.64186676 112.49211365 -111.01667786 111.87228394 C-109.07831615 109.95170165 -107.13341161 108.03793006 -105.1875 106.125 C-103.25314456 104.21839196 -101.32031334 102.31030176 -99.39045715 100.3991394 C-98.19119101 99.21198706 -96.98926251 98.02751599 -95.78422546 96.84622192 C-93.19537271 94.28790215 -90.71097 91.71861822 -88.40356445 88.90185547 C-86.06644109 86.08021521 -83.62146563 83.55755685 -81 81 C-79.83692821 79.84447452 -78.67508433 78.6877124 -77.51416016 77.5300293 C-76.87644684 76.89554367 -76.23873352 76.26105804 -75.58169556 75.60734558 C-72.6886821 72.72779595 -69.79838611 69.84552498 -66.90820312 66.96313477 C-65.39054928 65.45051164 -63.87199938 63.93878699 -62.35253906 62.42797852 C-60.14146481 60.22913472 -57.93372562 58.02698763 -55.7265625 55.82421875 C-54.72153183 54.82693001 -54.72153183 54.82693001 -53.69619751 53.80949402 C-49.8196139 49.93336506 -46.14402233 45.95243047 -42.60140991 41.76789856 C-41.00555468 40.00613216 -39.33616686 38.50612616 -37.5 37 C-35.11573987 35.0290637 -33.09706009 33.03131326 -31.1171875 30.65625 C-26.16653623 24.92640242 -20.77946431 19.62989931 -15.41845703 14.28808594 C-13.60460383 12.47966491 -11.7962482 10.66586636 -9.98828125 8.8515625 C-8.83886279 7.7028036 -7.68913483 6.55435427 -6.5390625 5.40625 C-5.72666611 4.59081726 -5.72666611 4.59081726 -4.89785767 3.75891113 C-1.11499614 0 -1.11499614 0 0 0 Z " fill="#C3C3C3" transform="translate(736,355)"/>
<path d="M0 0 C0.66 0 1.32 0 2 0 C2 2.66666667 2 5.33333333 2 8 C0.824375 8.0928125 0.824375 8.0928125 -0.375 8.1875 C-3.22364227 8.73319222 -3.22364227 8.73319222 -4.3125 11.4375 C-5.08637619 13.87976042 -5.08637619 13.87976042 -5 16 C-5.763125 16.0825 -6.52625 16.165 -7.3125 16.25 C-10.57228768 17.15970819 -11.22201977 18.20603107 -13 21 C-15 23 -15 23 -17.5625 23.9375 C-18.366875 24.288125 -19.17125 24.63875 -20 25 C-21.21081851 28.10540926 -21.21081851 28.10540926 -21 32 C-21.94875 32.0825 -22.8975 32.165 -23.875 32.25 C-27.07504616 32.65560411 -27.07504616 32.65560411 -28.375 34.9375 C-29.09666913 36.95982189 -29.09666913 36.95982189 -29 39 C-30.11375 39.391875 -31.2275 39.78375 -32.375 40.1875 C-35.51362383 41.46893222 -35.51362383 41.46893222 -37.0625 44.5 C-37.371875 45.325 -37.68125 46.15 -38 47 C-39.97522846 48.04808041 -41.97481509 49.0520411 -44 50 C-44.33 50.99 -44.66 51.98 -45 53 C-45.928125 53.5775 -46.85625 54.155 -47.8125 54.75 C-50.8160123 56.87012633 -51.51245061 57.56301719 -53.0625 60.625 C-55.24977347 64.43508928 -56.07796775 64.59209099 -60 66 C-61.0064275 67.66279327 -62.00585407 69.32983484 -63 71 C-64.5778125 71.99 -64.5778125 71.99 -66.1875 73 C-67.115625 73.66 -68.04375 74.32 -69 75 C-69.50241322 77.6704053 -69.50241322 77.6704053 -69 80 C-69.94875 80.2475 -70.8975 80.495 -71.875 80.75 C-75.08693191 81.6857077 -75.08693191 81.6857077 -76.375 84.125 C-76.58125 84.74375 -76.7875 85.3625 -77 86 C-77.66 86 -78.32 86 -79 86 C-79 86.66 -79 87.32 -79 88 C-79.78375 88.45375 -80.5675 88.9075 -81.375 89.375 C-84.08090215 90.72564789 -84.08090215 90.72564789 -84.9375 92.9375 C-86 95 -86 95 -89.0625 96.9375 C-92.21225644 98.70633249 -92.21225644 98.70633249 -92.875 101.75 C-92.91625 102.4925 -92.9575 103.235 -93 104 C-96 105 -96 105 -98 105 C-99.02611949 106.65071396 -100.02308143 108.31970006 -101 110 C-102.61231846 111.89272167 -103.71640323 112.87592642 -106 113.875 C-108.22674112 114.91027669 -108.22674112 114.91027669 -109.5 117.5 C-111 120 -111 120 -113.0625 121 C-115.26561537 121.85165953 -115.26561537 121.85165953 -115.8125 124.4375 C-117 127 -117 127 -120.4375 128.4375 C-124.77692328 130.34075582 -125.05869125 131.85265857 -127 136 C-127.845625 136.33 -128.69125 136.66 -129.5625 137 C-130.366875 137.33 -131.17125 137.66 -132 138 C-132.70626239 139.98636298 -133.36893571 141.98848259 -134 144 C-135.64694485 145.68615782 -137.31126121 147.35570171 -139 149 C-139 149.99 -139 150.98 -139 152 C-139.66 152 -140.32 152 -141 152 C-141.33 152.99 -141.66 153.98 -142 155 C-142.99 155 -143.98 155 -145 155 C-145.28875 155.5775 -145.5775 156.155 -145.875 156.75 C-146.91666667 158.83333333 -147.95833333 160.91666667 -149 163 C-149.99 163 -150.98 163 -152 163 C-152 163.66 -152 164.32 -152 165 C-152.66 165 -153.32 165 -154 165 C-154 165.99 -154 166.98 -154 168 C-154.495 168.474375 -154.99 168.94875 -155.5 169.4375 C-157.46168789 171.11993064 -157.46168789 171.11993064 -157 175 C-160.05847848 175.54372951 -162.88772805 176 -166 176 C-165.505 179.465 -165.505 179.465 -165 183 C-167.66666667 183.66666667 -170.33333333 184.33333333 -173 185 C-172.979375 185.969375 -172.95875 186.93875 -172.9375 187.9375 C-173 191 -173 191 -174 192 C-174.969375 191.979375 -175.93875 191.95875 -176.9375 191.9375 C-180.11031214 191.64862426 -180.11031214 191.64862426 -182 194 C-181.67958603 196.60280568 -181.67958603 196.60280568 -181 199 C-186.625 200.125 -186.625 200.125 -190 199 C-190.66 200.65 -191.32 202.3 -192 204 C-191.34 204.33 -190.68 204.66 -190 205 C-192 207 -192 207 -194.625 207.125 C-195.40875 207.08375 -196.1925 207.0425 -197 207 C-197.66 208.32 -198.32 209.64 -199 211 C-199.66 211 -200.32 211 -201 211 C-201.33 211.66 -201.66 212.32 -202 213 C-202.680625 213.639375 -203.36125 214.27875 -204.0625 214.9375 C-206.34233773 216.89278939 -206.34233773 216.89278939 -206 220 C-206.33 220.99 -206.66 221.98 -207 223 C-208.65 223 -210.3 223 -212 223 C-213.87543354 226.86763446 -213.87543354 226.86763446 -213 231 C-215.31 231.33 -217.62 231.66 -220 232 C-220.82638376 234.89234315 -221 236.88742431 -221 240 C-222.32 240 -223.64 240 -225 240 C-225.495 239.01 -225.495 239.01 -226 238 C-228.7972908 240.06756277 -229.02692273 241.14440371 -229.6875 244.6875 C-229.790625 245.780625 -229.89375 246.87375 -230 248 C-231.98 247.67 -233.96 247.34 -236 247 C-236.28875 248.134375 -236.5775 249.26875 -236.875 250.4375 C-237.431875 252.2009375 -237.431875 252.2009375 -238 254 C-238.66 254.33 -239.32 254.66 -240 255 C-239.01 255.33 -238.02 255.66 -237 256 C-236.67 257.32 -236.34 258.64 -236 260 C-239.3 258.35 -242.6 256.7 -246 255 C-246 251 -246 251 -244.81880188 249.33778381 C-244.26540634 248.79327072 -243.7120108 248.24875763 -243.1418457 247.68774414 C-242.5173201 247.06352066 -241.89279449 246.43929718 -241.24934387 245.79615784 C-240.56506821 245.13252731 -239.88079254 244.46889679 -239.17578125 243.78515625 C-238.47736618 243.09240097 -237.77895111 242.39964569 -237.05937195 241.68589783 C-234.81961614 239.4685491 -232.56639829 237.26546274 -230.3125 235.0625 C-228.8122385 233.58230455 -227.31287833 232.10119496 -225.81445312 230.61914062 C-223.05023542 227.88758576 -220.28090414 225.16145667 -217.50512695 222.44165039 C-212.75895031 217.78399607 -208.25009429 213.12190851 -204 208 C-201.8125 205.625 -201.8125 205.625 -200 204 C-199.34 204 -198.68 204 -198 204 C-197.61366646 203.12519989 -197.61366646 203.12519989 -197.2195282 202.23272705 C-195.89414842 199.80620565 -194.45160702 198.21724072 -192.48754883 196.27636719 C-191.41051445 195.20440094 -191.41051445 195.20440094 -190.3117218 194.11077881 C-189.14614998 192.96539642 -189.14614998 192.96539642 -187.95703125 191.796875 C-187.1552092 191.00025452 -186.35338715 190.20363403 -185.52726746 189.38287354 C-182.96037582 186.8337925 -180.38692442 184.2914714 -177.8125 181.75 C-175.25675608 179.22200181 -172.7025261 176.69252167 -170.15129089 174.15997314 C-168.5646798 172.58547555 -166.97540406 171.01365686 -165.38301086 169.44500732 C-162.00268154 166.09476404 -158.71136255 162.72740331 -155.61206055 159.11425781 C-151.61862926 154.47644901 -147.29979318 150.1863884 -142.95483398 145.87966919 C-141.46285757 144.40068091 -139.97422447 142.91839498 -138.48632812 141.43530273 C-134.79331846 137.75552613 -131.09482888 134.08127373 -127.39648438 130.40686035 C-124.25929696 127.28954371 -121.12426398 124.17008912 -117.99194336 121.04788208 C-116.53902092 119.60134931 -115.08307719 118.15790833 -113.62695312 116.71459961 C-109.15860601 112.26269204 -104.85446091 107.75976654 -100.74835205 102.97320557 C-97.32772854 99.11265966 -93.62567431 95.5252202 -89.9609375 91.8984375 C-89.11705475 91.05834137 -88.273172 90.21824524 -87.40371704 89.35269165 C-84.72990623 86.6910057 -82.05287196 84.03259968 -79.375 81.375 C-75.83822886 77.86489752 -72.30483107 74.3514492 -68.7734375 70.8359375 C-67.96812592 70.03892426 -67.16281433 69.24191101 -66.33309937 68.42074585 C-61.63365689 63.74214992 -61.63365689 63.74214992 -57.26416016 58.76025391 C-54.98134645 55.97725932 -52.57440759 53.51509798 -50 51 C-48.70369485 49.70646288 -47.40892636 48.41138497 -46.11523438 47.11523438 C-36.37174479 37.37174479 -26.62825521 27.62825521 -16.88476562 17.88476562 C-15.87373779 16.8725293 -15.87373779 16.8725293 -14.84228516 15.83984375 C-13.70724869 14.70631144 -12.56948165 13.57549635 -11.42724609 12.44921875 C-9.55180289 10.59756696 -7.87020718 8.82213576 -6.3125 6.6875 C-5.879375 6.130625 -5.44625 5.57375 -5 5 C-4.34 5 -3.68 5 -3 5 C-2.690625 4.360625 -2.38125 3.72125 -2.0625 3.0625 C-1 1 -1 1 0 0 Z " fill="#DEE6EC" transform="translate(557,536)"/>
<path d="M0 0 C0.99 0.495 0.99 0.495 2 1 C1.835 2.051875 1.67 3.10375 1.5 4.1875 C1.10430322 7.20468796 0.90821029 9.97093972 1 13 C-2.05847848 13.54372951 -4.88772805 14 -8 14 C-7.505 17.465 -7.505 17.465 -7 21 C-9.66666667 21.66666667 -12.33333333 22.33333333 -15 23 C-14.979375 23.969375 -14.95875 24.93875 -14.9375 25.9375 C-15 29 -15 29 -16 30 C-16.969375 29.979375 -17.93875 29.95875 -18.9375 29.9375 C-22.11031214 29.64862426 -22.11031214 29.64862426 -24 32 C-23.67958603 34.60280568 -23.67958603 34.60280568 -23 37 C-28.625 38.125 -28.625 38.125 -32 37 C-32.66 38.65 -33.32 40.3 -34 42 C-33.01 42.495 -33.01 42.495 -32 43 C-34 45 -34 45 -36.625 45.125 C-37.40875 45.08375 -38.1925 45.0425 -39 45 C-39.66 46.32 -40.32 47.64 -41 49 C-41.66 49 -42.32 49 -43 49 C-43.495 49.99 -43.495 49.99 -44 51 C-44.680625 51.639375 -45.36125 52.27875 -46.0625 52.9375 C-48.34233773 54.89278939 -48.34233773 54.89278939 -48 58 C-48.33 58.99 -48.66 59.98 -49 61 C-50.65 61 -52.3 61 -54 61 C-55.87543354 64.86763446 -55.87543354 64.86763446 -55 69 C-58.465 69.495 -58.465 69.495 -62 70 C-62.82638376 72.89234315 -63 74.88742431 -63 78 C-64.32 78 -65.64 78 -67 78 C-67.495 77.01 -67.495 77.01 -68 76 C-70.7972908 78.06756277 -71.02692273 79.14440371 -71.6875 82.6875 C-71.790625 83.780625 -71.89375 84.87375 -72 86 C-73.98 85.67 -75.96 85.34 -78 85 C-78.28875 86.134375 -78.5775 87.26875 -78.875 88.4375 C-79.431875 90.2009375 -79.431875 90.2009375 -80 92 C-80.99 92.495 -80.99 92.495 -82 93 C-81.01 93.33 -80.02 93.66 -79 94 C-78.67 95.32 -78.34 96.64 -78 98 C-81.3 96.35 -84.6 94.7 -88 93 C-88 89 -88 89 -86.81880188 87.33778381 C-85.98870857 86.52101418 -85.98870857 86.52101418 -85.1418457 85.68774414 C-84.5173201 85.06352066 -83.89279449 84.43929718 -83.24934387 83.79615784 C-82.56506821 83.13252731 -81.88079254 82.46889679 -81.17578125 81.78515625 C-80.47736618 81.09240097 -79.77895111 80.39964569 -79.05937195 79.68589783 C-76.81961614 77.4685491 -74.56639829 75.26546274 -72.3125 73.0625 C-70.8122385 71.58230455 -69.31287833 70.10119496 -67.81445312 68.61914062 C-65.05023542 65.88758576 -62.28090414 63.16145667 -59.50512695 60.44165039 C-54.75895031 55.78399607 -50.25009429 51.12190851 -46 46 C-43.8125 43.625 -43.8125 43.625 -42 42 C-41.34 42 -40.68 42 -40 42 C-39.74662872 41.42131165 -39.49325745 40.84262329 -39.23220825 40.24639893 C-37.85603669 37.73754516 -36.31357207 36.07308483 -34.28466797 34.05761719 C-33.52403046 33.29713074 -32.76339294 32.53664429 -31.97970581 31.75311279 C-31.15882477 30.94255432 -30.33794373 30.13199585 -29.4921875 29.296875 C-28.65156769 28.45908508 -27.81094788 27.62129517 -26.94485474 26.75811768 C-24.25955999 24.08401569 -21.56739345 21.41695276 -18.875 18.75 C-17.05292845 16.93795938 -15.23130823 15.12546482 -13.41015625 13.3125 C-8.94532748 8.86971964 -4.47483717 4.43269835 0 0 Z " fill="#E3E8EC" transform="translate(399,698)"/>
<path d="M0 0 C5.30111428 0.59464099 10.38453446 1.4490264 15.5859375 2.671875 C16.28088318 2.83453857 16.97582886 2.99720215 17.6918335 3.16479492 C19.92071524 3.68841827 22.14792648 4.21874287 24.375 4.75 C25.1363324 4.93018677 25.89766479 5.11037354 26.68206787 5.29602051 C36.58495697 7.64074839 46.43105417 10.10681756 56.2109375 12.92578125 C60.03918064 14.01110791 63.88549054 14.99249875 67.75 15.9375 C82.08683776 19.4606997 96.30907322 23.43795201 110.45703125 27.65234375 C113.90852695 28.6802333 117.36519967 29.68912455 120.82421875 30.69140625 C130.97591902 33.63340597 141.10525142 36.6156017 151.1796875 39.8125 C153.94569612 40.68277015 156.72194116 41.50808705 159.5078125 42.3125 C160.26779541 42.53212402 161.02777832 42.75174805 161.81079102 42.97802734 C163.25803928 43.39385819 164.70636743 43.80595866 166.15600586 44.21337891 C172.04788668 45.90579637 177.55256273 48.16733262 183 51 C182.34 51 181.68 51 181 51 C181 51.66 181 52.32 181 53 C173.375 52.125 173.375 52.125 170 51 C168.27204648 50.93197033 166.54164635 50.91504355 164.8125 50.9375 C163.91144531 50.94652344 163.01039063 50.95554687 162.08203125 50.96484375 C161.39496094 50.97644531 160.70789063 50.98804688 160 51 C159.67 50.34 159.34 49.68 159 49 C159.33 48.01 159.66 47.02 160 46 C159.236875 46.020625 158.47375 46.04125 157.6875 46.0625 C155 46 155 46 152 45 C152 44.34 152 43.68 152 43 C150.68 43.33 149.36 43.66 148 44 C147.67 43.01 147.34 42.02 147 41 C146.34 41 145.68 41 145 41 C144.67 41.99 144.34 42.98 144 44 C143.34 43.34 142.68 42.68 142 42 C139.89179203 42.3185177 139.89179203 42.3185177 138 43 C138.33 42.01 138.66 41.02 139 40 C138.01 39.67 137.02 39.34 136 39 C135.40703125 38.67257812 134.8140625 38.34515625 134.203125 38.0078125 C127.28312748 34.84228172 118.51546351 34.70527594 111 35 C111 34.01 111 33.02 111 32 C109.906875 31.896875 108.81375 31.79375 107.6875 31.6875 C104 31 104 31 102.578125 29.53515625 C100.51154651 27.52484599 98.87470474 27.27438103 96.0625 26.75 C95.20785156 26.57984375 94.35320312 26.4096875 93.47265625 26.234375 C91.02421715 25.85876095 91.02421715 25.85876095 88.80859375 26.578125 C88.21175781 26.71734375 87.61492187 26.8565625 87 27 C86.01 26.01 86.01 26.01 85 25 C82.39719432 25.32041397 82.39719432 25.32041397 80 26 C80 24.35 80 22.7 80 21 C79.07767578 20.90912109 79.07767578 20.90912109 78.13671875 20.81640625 C77.32847656 20.73261719 76.52023438 20.64882813 75.6875 20.5625 C74.88699219 20.48128906 74.08648437 20.40007813 73.26171875 20.31640625 C71 20 71 20 68 19 C66.00047382 19.16781909 66.00047382 19.16781909 63.9375 19.5625 C62.638125 19.706875 61.33875 19.85125 60 20 C59.34 19.34 58.68 18.68 58 18 C56.65737935 18.29369827 55.32303717 18.6278958 54 19 C53.34 18.67 52.68 18.34 52 18 C52 17.01 52 16.02 52 15 C50.824375 14.896875 49.64875 14.79375 48.4375 14.6875 C44.23647697 14.17716446 40.87956684 12.69290189 37 11 C31.93979454 9.97179236 31.93979454 9.97179236 27 11 C24.30078125 10.44140625 24.30078125 10.44140625 21.3125 9.5625 C20.31863281 9.27503906 19.32476563 8.98757813 18.30078125 8.69140625 C17.54152344 8.46324219 16.78226563 8.23507812 16 8 C16 7.01 16 6.02 16 5 C15.14728516 5.01740234 15.14728516 5.01740234 14.27734375 5.03515625 C9.39329516 5.09223194 4.81496035 4.81956772 0 4 C0 2.68 0 1.36 0 0 Z " fill="#A2ACB4" transform="translate(0,684)"/>
<path d="M0 0 C-8.89282227 8.89282227 -17.78564453 17.78564453 -26.6784668 26.6784668 C-27.53006378 27.53048676 -27.53006378 27.53048676 -28.39886475 28.39971924 C-29.85559494 29.855672 -31.31521318 31.30873373 -32.77514648 32.76147461 C-35.39069877 35.39309964 -37.88568184 38.12506411 -40.375 40.875 C-44.46989352 45.37390823 -48.6489206 49.74561125 -53 54 C-56 52 -56 52 -56.3984375 50.125 C-56.39070313 49.42375 -56.38296875 48.7225 -56.375 48 C-56.38273437 47.29875 -56.39046875 46.5975 -56.3984375 45.875 C-56 44 -56 44 -53 42 C-53 42.66 -53 43.32 -53 44 C-52.38125 43.505 -51.7625 43.01 -51.125 42.5 C-49 41 -49 41 -47 41 C-47.0825 40.236875 -47.165 39.47375 -47.25 38.6875 C-47 36 -47 36 -45.3125 34.25 C-42.84862472 32.91817553 -40.76270435 32.38370894 -38 32 C-38.33 30.02 -38.66 28.04 -39 26 C-35.98968256 25.06576355 -35.13349732 24.95550089 -32 26 C-31.5875 25.2575 -31.175 24.515 -30.75 23.75 C-29 21 -29 21 -26.875 18.9375 C-24.84752734 16.84244492 -24.66044466 15.73612786 -24 13 C-23.01 12.67 -22.02 12.34 -21 12 C-20.67 11.34 -20.34 10.68 -20 10 C-19.34 10.33 -18.68 10.66 -18 11 C-16.52072017 9.52072017 -15.81210037 7.91423658 -15 6 C-15.495 5.01 -15.495 5.01 -16 4 C-15.34 4 -14.68 4 -14 4 C-13.67 3.34 -13.34 2.68 -13 2 C-11.67851173 1.62243192 -10.34164079 1.2981424 -9 1 C-8.175 0.62875 -7.35 0.2575 -6.5 -0.125 C-3.7121571 -1.10074502 -2.741985 -0.82491922 0 0 Z " fill="#103A5C" transform="translate(536,559)"/>
<path d="M0 0 C0.66 0 1.32 0 2 0 C2.23509196 4.81938524 1.45184478 8.46298506 0 13 C-2.31 13 -4.62 13 -7 13 C-7 14.65 -7 16.3 -7 18 C-7.99 18 -8.98 18 -10 18 C-10.66 18.99 -11.32 19.98 -12 21 C-12.99 20.67 -13.98 20.34 -15 20 C-14.8453125 21.1446875 -14.8453125 21.1446875 -14.6875 22.3125 C-14.790625 23.199375 -14.89375 24.08625 -15 25 C-17.60990289 26.97506165 -19.89701029 27.9656701 -23 29 C-23.90837763 31.47739354 -24 33.33579484 -24 36 C-24.8971875 35.7215625 -24.8971875 35.7215625 -25.8125 35.4375 C-28.16408762 34.77906313 -28.16408762 34.77906313 -31 36 C-31.33 38.64 -31.66 41.28 -32 44 C-34.475 44.495 -34.475 44.495 -37 45 C-37.495 43.515 -37.495 43.515 -38 42 C-38.99 43.32 -39.98 44.64 -41 46 C-40.34 46.33 -39.68 46.66 -39 47 C-39.495 49.475 -39.495 49.475 -40 52 C-40.78375 52.12375 -41.5675 52.2475 -42.375 52.375 C-45.14057822 52.79117993 -45.14057822 52.79117993 -47 55 C-47.39764263 56.98821313 -47.73775349 58.98944339 -48 61 C-48.99 61 -49.98 61 -51 61 C-53 59 -53 59 -53.51977539 56.7980957 C-52.70554494 52.41486642 -49.83248866 50.23566732 -46.68359375 47.23046875 C-46.03431412 46.59063553 -45.38503448 45.95080231 -44.71607971 45.2915802 C-42.63468813 43.2447785 -40.53697553 41.21573344 -38.4375 39.1875 C-36.366458 37.16672953 -34.29900687 35.14239163 -32.23390198 33.11555481 C-30.94913505 31.85678441 -29.66044061 30.60200462 -28.36705017 29.35209656 C-24.57267824 25.6602451 -21.0370334 21.83420818 -17.61830139 17.79096985 C-16.0171456 16.01897499 -14.34553559 14.51204219 -12.5 13 C-9.10910823 10.21380451 -6.31272151 7.07863684 -3.48046875 3.734375 C-2 2 -2 2 0 0 Z " fill="#CCD3D9" transform="translate(711,379)"/>
<path d="M0 0 C0.66 0 1.32 0 2 0 C2.79970296 6.49604865 3.04702685 12.71910368 2.53125 19.25 C1.8712337 28.50318444 1.88776147 37.72798651 1.9375 47 C1.94253373 48.66145696 1.94709327 50.32291542 1.95117188 51.984375 C1.96200913 55.98962171 1.97916626 59.99479334 2 64 C2.66 64 3.32 64 4 64 C3.83564453 64.54640137 3.67128906 65.09280273 3.50195312 65.65576172 C2.92567463 68.34711683 2.92257116 70.75601525 2.96875 73.5078125 C3.02088695 79.64693865 2.79570191 85.74418025 2.5 91.875 C2.14629729 99.61941651 1.9552511 107.3106119 2.03125 115.0625 C1.98500331 119.40968908 1.5559745 123.69119763 1 128 C1.66 128 2.32 128 3 128 C3.14401022 132.5531741 3.28636397 137.10639601 3.42724609 141.65966797 C3.47530387 143.2055803 3.52379817 144.75147913 3.57275391 146.29736328 C3.64342833 148.53154058 3.71248313 150.76576326 3.78125 153 C3.80312378 153.68054443 3.82499756 154.36108887 3.84753418 155.06225586 C4.06371065 162.18955487 4.01020879 168.92853848 3 176 C2.91983702 178.6736713 2.95305591 181.32418681 3 184 C2.34 184 1.68 184 1 184 C-0.11756922 147.28322204 -0.12497686 110.57980247 -0.07202661 73.8506881 C-0.06059453 65.77250393 -0.05528772 57.69431864 -0.05032361 49.61612833 C-0.04003193 33.07740938 -0.02258932 16.53870684 0 0 Z " fill="#626262" transform="translate(384,920)"/>
<path d="M0 0 C0.66 0 1.32 0 2 0 C2 2.66666667 2 5.33333333 2 8 C0.824375 8.0928125 0.824375 8.0928125 -0.375 8.1875 C-3.22364227 8.73319222 -3.22364227 8.73319222 -4.3125 11.4375 C-5.08637619 13.87976042 -5.08637619 13.87976042 -5 16 C-5.763125 16.0825 -6.52625 16.165 -7.3125 16.25 C-10.57228768 17.15970819 -11.22201977 18.20603107 -13 21 C-15 23 -15 23 -17.5625 23.9375 C-18.366875 24.288125 -19.17125 24.63875 -20 25 C-21.21081851 28.10540926 -21.21081851 28.10540926 -21 32 C-21.94875 32.0825 -22.8975 32.165 -23.875 32.25 C-27.07504616 32.65560411 -27.07504616 32.65560411 -28.375 34.9375 C-29.09666913 36.95982189 -29.09666913 36.95982189 -29 39 C-30.670625 39.5878125 -30.670625 39.5878125 -32.375 40.1875 C-35.51362383 41.46893222 -35.51362383 41.46893222 -37.0625 44.5 C-37.371875 45.325 -37.68125 46.15 -38 47 C-39.97522846 48.04808041 -41.97481509 49.0520411 -44 50 C-44.33 50.99 -44.66 51.98 -45 53 C-45.928125 53.5775 -46.85625 54.155 -47.8125 54.75 C-51.71122541 57.50204146 -52.89236701 59.78473403 -55 64 C-56.32 64 -57.64 64 -59 64 C-58.72635073 60.71620875 -58.42733278 59.36448972 -55.875 57.1875 C-54.92625 56.465625 -53.9775 55.74375 -53 55 C-51.91038998 53.8055737 -50.84706172 52.58692208 -49.80322266 51.35229492 C-46.13565561 47.10411467 -42.25582265 43.12748939 -38.2734375 39.17578125 C-37.56273102 38.46648972 -36.85202454 37.75719818 -36.11978149 37.02641296 C-33.87388523 34.78605515 -31.62452373 32.54921488 -29.375 30.3125 C-27.85914163 28.8016664 -26.34351466 27.2906006 -24.828125 25.77929688 C-22.04879046 23.00808368 -19.26814884 20.23819745 -16.48583984 17.4699707 C-15.8876947 16.87399078 -15.28954956 16.27801086 -14.67327881 15.66397095 C-13.61328262 14.60987115 -12.55094308 13.55811822 -11.4854126 12.50961304 C-9.59141115 10.63961183 -7.88529786 8.84281558 -6.3125 6.6875 C-5.879375 6.130625 -5.44625 5.57375 -5 5 C-4.34 5 -3.68 5 -3 5 C-2.690625 4.360625 -2.38125 3.72125 -2.0625 3.0625 C-1 1 -1 1 0 0 Z " fill="#D4DDE4" transform="translate(557,536)"/>
<path d="M0 0 C2.475 0.99 2.475 0.99 5 2 C-0.77623498 9.08948201 -7.31645482 15.39329861 -13.8125 21.8125 C-16.09270671 24.06614488 -18.36959413 26.32306859 -20.64453125 28.58203125 C-21.16739212 29.09659378 -21.69025299 29.61115631 -22.22895813 30.14131165 C-24.95870643 32.80906769 -24.95870643 32.80906769 -27 36 C-27.66 36 -28.32 36 -29 36 C-29.226875 36.556875 -29.45375 37.11375 -29.6875 37.6875 C-31.38572802 40.67961603 -33.50764196 42.61600535 -36 45 C-37.44016945 46.43482559 -38.87754199 47.87246249 -40.3125 49.3125 C-41.54166667 50.54166667 -42.77083333 51.77083333 -44 53 C-44.99 52.67 -45.98 52.34 -47 52 C-46.67 51.34 -46.34 50.68 -46 50 C-46.33 49.67 -46.66 49.34 -47 49 C-46.01 48.505 -46.01 48.505 -45 48 C-45 47.34 -45 46.68 -45 46 C-44.34 46 -43.68 46 -43 46 C-42.34 45.01 -41.68 44.02 -41 43 C-40.34 43 -39.68 43 -39 43 C-38.7525 42.484375 -38.505 41.96875 -38.25 41.4375 C-37.8375 40.633125 -37.425 39.82875 -37 39 C-36.70867188 38.40960937 -36.41734375 37.81921875 -36.1171875 37.2109375 C-33.50339763 32.20974901 -33.50339763 32.20974901 -30.75 31.0625 C-30.1725 31.041875 -29.595 31.02125 -29 31 C-28.01 27.535 -28.01 27.535 -27 24 C-23.535 23.505 -23.535 23.505 -20 23 C-20.33 20.69 -20.66 18.38 -21 16 C-18.69 16 -16.38 16 -14 16 C-13.855625 15.4225 -13.71125 14.845 -13.5625 14.25 C-13.04166667 12.16666667 -12.52083333 10.08333333 -12 8 C-11.4225 8.226875 -10.845 8.45375 -10.25 8.6875 C-7.90979378 9.2562178 -7.90979378 9.2562178 -5.875 7.6875 C-4.54967226 6.49470503 -3.260804 5.260804 -2 4 C-1.34 3.67 -0.68 3.34 0 3 C0 2.01 0 1.02 0 0 Z " fill="#0D3758" transform="translate(581,505)"/>
<path d="M0 0 C1.0625 1.875 1.0625 1.875 2 4 C1.67 4.66 1.34 5.32 1 6 C1.495 7.485 1.495 7.485 2 9 C1.01 9 0.02 9 -1 9 C-3.75 10.08333333 -3.75 10.08333333 -6 12 C-6.41780879 14.62694422 -6.41780879 14.62694422 -6 17 C-7.670625 17.309375 -7.670625 17.309375 -9.375 17.625 C-13.26599195 18.61628301 -13.26599195 18.61628301 -14.4375 22.125 C-14.623125 23.07375 -14.80875 24.0225 -15 25 C-16.65 25.33 -18.3 25.66 -20 26 C-20.185625 26.928125 -20.37125 27.85625 -20.5625 28.8125 C-22 32 -22 32 -25.5 33.8125 C-26.655 34.204375 -27.81 34.59625 -29 35 C-29.99 35.495 -29.99 35.495 -31 36 C-30.814375 36.61875 -30.62875 37.2375 -30.4375 37.875 C-30 40 -30 40 -31 42 C-31.5775 41.7525 -32.155 41.505 -32.75 41.25 C-35.15946797 40.73104884 -35.15946797 40.73104884 -37.3125 42.625 C-39.31052679 44.89158166 -39.31052679 44.89158166 -38.75 47.75 C-38.5025 48.4925 -38.255 49.235 -38 50 C-40.31 49.67 -42.62 49.34 -45 49 C-44.57957038 44.09498775 -42.56464878 42.24779111 -39 39 C-37.93489434 37.8983466 -36.87240119 36.79416153 -35.8125 35.6875 C-33 33 -33 33 -31 33 C-30.72958893 32.40427185 -30.45917786 31.8085437 -30.18057251 31.19476318 C-29.00982981 29.01827427 -27.85681177 27.61457863 -26.11083984 25.88378906 C-25.5303891 25.30348938 -24.94993835 24.7231897 -24.35189819 24.12530518 C-23.72788116 23.51161072 -23.10386414 22.89791626 -22.4609375 22.265625 C-21.82008209 21.62759949 -21.17922668 20.98957397 -20.51895142 20.33221436 C-18.47562179 18.30005931 -16.42544018 16.27497782 -14.375 14.25 C-12.9865214 12.8715547 -11.5984951 11.49265364 -10.2109375 10.11328125 C-6.81251303 6.73688106 -3.40792746 3.36680712 0 0 Z " fill="#CCD3DC" transform="translate(646,446)"/>
<path d="M0 0 C1.15941038 3.47823115 0.70820884 5.45895578 0 9 C-1.98 9.66 -3.96 10.32 -6 11 C-6.33 13.31 -6.66 15.62 -7 18 C-8.670625 18.12375 -8.670625 18.12375 -10.375 18.25 C-14.02222379 18.59489367 -14.02222379 18.59489367 -15.5 20.9375 C-16.24598544 23.04582216 -16.24598544 23.04582216 -15 25 C-16.11375 25.433125 -17.2275 25.86625 -18.375 26.3125 C-22.17512334 27.69911119 -22.17512334 27.69911119 -24 31 C-24 31.99 -24 32.98 -24 34 C-24.78375 34.0825 -25.5675 34.165 -26.375 34.25 C-29.10873509 34.72459068 -29.10873509 34.72459068 -30.25 36.875 C-30.85080075 38.57726879 -31.42915146 40.28745438 -32 42 C-34.97 42.495 -34.97 42.495 -38 43 C-38.67153931 41.20701599 -38.67153931 41.20701599 -39 39 C-37.9390564 37.33778381 -37.9390564 37.33778381 -36.25537109 35.68774414 C-35.63076996 35.06352066 -35.00616882 34.43929718 -34.36264038 33.79615784 C-33.32848495 32.80071205 -33.32848495 32.80071205 -32.2734375 31.78515625 C-31.57360748 31.09240097 -30.87377747 30.39964569 -30.15274048 29.68589783 C-27.90492764 27.46612446 -25.64042144 25.264286 -23.375 23.0625 C-21.86995684 21.5825355 -20.36603608 20.10142865 -18.86328125 18.61914062 C-16.08943035 15.88613989 -13.30923745 13.15996645 -10.52099609 10.44165039 C-7.65836157 7.649321 -4.82048752 4.83486798 -2 2 C-1.34 1.34 -0.68 0.68 0 0 Z " fill="#D1D8DD" transform="translate(599,494)"/>
<path d="M0 0 C15.27030878 3.01676656 30.20131215 9.94705136 44.47265625 15.94775391 C48.62977991 17.67855017 52.81486271 19.33836935 57 21 C60.33333333 22.33333333 63.66666667 23.66666667 67 25 C67 25.33 67 25.66 67 26 C63.7 26 60.4 26 57 26 C57 25.34 57 24.68 57 24 C56.46375 24.20625 55.9275 24.4125 55.375 24.625 C52.08800051 25.14399992 50.03451945 24.29128487 47 23 C45.98131338 22.01904252 44.97648017 21.02297922 44 20 C43.01 20 42.02 20 41 20 C41 19.01 41 18.02 41 17 C39.35 17 37.7 17 36 17 C36 16.34 36 15.68 36 15 C34.9275 15.165 33.855 15.33 32.75 15.5 C29 16 29 16 25 16 C25 14.68 25 13.36 25 12 C21.37 11.01 17.74 10.02 14 9 C14 8.34 14 7.68 14 7 C12.02 7 10.04 7 8 7 C7.67 6.01 7.34 5.02 7 4 C5.02 4.66 3.04 5.32 1 6 C1 5.01 1 4.02 1 3 C0.34 2.34 -0.32 1.68 -1 1 C-0.67 0.67 -0.34 0.34 0 0 Z M42 20 C42.99 20.33 43.98 20.66 45 21 C44.01 21 43.02 21 42 21 C42 20.67 42 20.34 42 20 Z " fill="#ADB6C1" transform="translate(183,735)"/>
<path d="M0 0 C-4.15556181 5.05406167 -8.62247991 9.70185183 -13.30395508 14.2668457 C-15.99608085 16.870154 -15.99608085 16.870154 -18 20 C-18.66 20 -19.32 20 -20 20 C-20.226875 20.556875 -20.45375 21.11375 -20.6875 21.6875 C-22.84453833 25.4879961 -25.92376859 28.1786655 -29.375 30.8125 C-32.44528473 33.37107061 -34.88961525 36.23393042 -37.44921875 39.29296875 C-39 41 -39 41 -41 42 C-41 38.7 -41 35.4 -41 32 C-39.68 32 -38.36 32 -37 32 C-33.39345961 29.59563974 -33.14547068 28.05320393 -32 24 C-30.35 24 -28.7 24 -27 24 C-26.649375 22.88625 -26.29875 21.7725 -25.9375 20.625 C-25.1328125 18.69140625 -25.1328125 18.69140625 -24 17 C-20.3125 15.5625 -20.3125 15.5625 -17 15 C-16.67 12.69 -16.34 10.38 -16 8 C-14.02 8 -12.04 8 -10 8 C-9.855625 7.236875 -9.71125 6.47375 -9.5625 5.6875 C-9 3 -9 3 -8 0 C-4.71303767 -0.79953138 -3.28976808 -1.09658936 0 0 Z " fill="#0F3C5F" transform="translate(377,720)"/>
<path d="M0 0 C1.18722656 0.30357422 1.18722656 0.30357422 2.3984375 0.61328125 C3.70748047 0.92458984 3.70748047 0.92458984 5.04296875 1.2421875 C5.94402344 1.46777344 6.84507813 1.69335938 7.7734375 1.92578125 C9.54181135 2.31221316 11.31263464 2.68763851 13.0859375 3.05078125 C14.25576172 3.30214844 14.25576172 3.30214844 15.44921875 3.55859375 C17.9258852 3.94986542 20.27015414 3.98780951 22.7734375 3.92578125 C23.0209375 4.82296875 23.0209375 4.82296875 23.2734375 5.73828125 C25.59768593 9.12781022 28.94985819 9.94201299 32.7734375 10.92578125 C35.02666816 11.26278618 37.26528375 11.48759121 39.53515625 11.6796875 C43.05849828 12.06707065 46.35428863 12.99855444 49.7734375 13.92578125 C51.10608157 14.26185961 52.43924242 14.59591403 53.7734375 14.92578125 C53.7734375 15.58578125 53.7734375 16.24578125 53.7734375 16.92578125 C54.4334375 16.92578125 55.0934375 16.92578125 55.7734375 16.92578125 C55.2784375 18.41078125 55.2784375 18.41078125 54.7734375 19.92578125 C46.5564046 17.96829897 38.51064776 15.66662411 30.4609375 13.11328125 C18.32865226 9.31565538 6.1063706 6.00281084 -6.2265625 2.92578125 C-2.50488281 -0.08349609 -2.50488281 -0.08349609 0 0 Z " fill="#154266" transform="translate(89.2265625,702.07421875)"/>
<path d="M0 0 C0.94875 0.350625 1.8975 0.70125 2.875 1.0625 C-2.67535203 7.84626359 -8.88942027 13.91772968 -15.125 20.0625 C-20.12613594 18.58241304 -24.45415597 16.4306664 -29 13.9375 C-29.68835938 13.56496094 -30.37671875 13.19242188 -31.0859375 12.80859375 C-32.76794798 11.89750474 -34.44680436 10.98059685 -36.125 10.0625 C-35.465 9.0725 -34.805 8.0825 -34.125 7.0625 C-32.70818366 7.37432069 -31.29155349 7.68698737 -29.875 8 C-29.08609375 8.17402344 -28.2971875 8.34804688 -27.484375 8.52734375 C-25.35621297 9.010056 -23.23967158 9.52413178 -21.125 10.0625 C-21.125 11.3825 -21.125 12.7025 -21.125 14.0625 C-18.155 14.5575 -18.155 14.5575 -15.125 15.0625 C-14.7125 14.11375 -14.3 13.165 -13.875 12.1875 C-12.04058367 8.91175656 -11.43028382 8.40527155 -8.125 7.0625 C-6.33247941 5.77040088 -6.33247941 5.77040088 -5.125 4.0625 C-5.125 2.7425 -5.125 1.4225 -5.125 0.0625 C-3.125 -0.9375 -3.125 -0.9375 0 0 Z " fill="#154569" transform="translate(325.125,768.9375)"/>
<path d="M0 0 C0 4.29 0 8.58 0 13 C-6 13 -6 13 -8 12 C-8.061875 12.556875 -8.12375 13.11375 -8.1875 13.6875 C-9.35672428 17.01529218 -11.35322804 18.73133832 -14 21 C-14.99 21 -15.98 21 -17 21 C-16.67 23.31 -16.34 25.62 -16 28 C-16.66 28.33 -17.32 28.66 -18 29 C-18 28.34 -18 27.68 -18 27 C-19.98 27.99 -19.98 27.99 -22 29 C-22.79248047 25.84350586 -22.79248047 25.84350586 -23 22 C-21.10986328 19.18579102 -21.10986328 19.18579102 -18.3203125 16.50390625 C-17.58927811 15.78629372 -17.58927811 15.78629372 -16.84347534 15.05418396 C-15.288463 13.53719312 -13.70764149 12.0505872 -12.125 10.5625 C-11.06724965 9.53631703 -10.01123775 8.50833889 -8.95703125 7.47851562 C-1.24446808 0 -1.24446808 0 0 0 Z " fill="#CED0D2" transform="translate(736,355)"/>
<path d="M0 0 C-5.52650334 6.74080425 -11.69449559 12.8071129 -17.875 18.9375 C-18.95596274 20.01343727 -20.03669383 21.08960731 -21.1171875 22.16601562 C-23.74212641 24.78003292 -26.37018628 27.39088596 -29 30 C-29.99 29.34 -30.98 28.68 -32 28 C-32 26.68 -32 25.36 -32 24 C-29.69 23.34 -27.38 22.68 -25 22 C-24.67 20.35 -24.34 18.7 -24 17 C-23.195625 16.87625 -22.39125 16.7525 -21.5625 16.625 C-20.716875 16.41875 -19.87125 16.2125 -19 16 C-18.67 15.34 -18.34 14.68 -18 14 C-17.34 14 -16.68 14 -16 14 C-16 12.02 -16 10.04 -16 8 C-15.34 7.67 -14.68 7.34 -14 7 C-13.67 6.01 -13.34 5.02 -13 4 C-10.4375 2.8125 -10.4375 2.8125 -8 2 C-8 1.34 -8 0.68 -8 0 C-4.71023192 -1.09658936 -3.28696233 -0.79953138 0 0 Z " fill="#143D5C" transform="translate(448,648)"/>
<path d="M0 0 C0.99 0.33 1.98 0.66 3 1 C3 1.99 3 2.98 3 4 C1.88625 4.309375 1.88625 4.309375 0.75 4.625 C-2.79601423 6.39800711 -3.87580398 8.7109223 -6 12 C-7.33333333 12.66666667 -8.66666667 13.33333333 -10 14 C-10.268125 14.804375 -10.53625 15.60875 -10.8125 16.4375 C-12 19 -12 19 -15.4375 20.4375 C-19.77692328 22.34075582 -20.05869125 23.85265857 -22 28 C-22.845625 28.33 -23.69125 28.66 -24.5625 29 C-27.35259609 29.80956294 -27.35259609 29.80956294 -28.3125 33.125 C-28.539375 34.07375 -28.76625 35.0225 -29 36 C-29.66 36 -30.32 36 -31 36 C-31 35.34 -31 34.68 -31 34 C-31.66 33.67 -32.32 33.34 -33 33 C-22.11 22.11 -11.22 11.22 0 0 Z " fill="#DDE9F0" transform="translate(452,644)"/>
<path d="M0 0 C0.66 0 1.32 0 2 0 C2.77137089 6.26590504 3.07634682 12.29555805 2.5625 18.59375 C1.63023524 31.53764974 1.63441666 44.52922014 1.4375 57.5 C1.39463153 60.17318983 1.35059975 62.84635895 1.30664062 65.51953125 C1.20057725 72.01296377 1.0986368 78.50645064 1 85 C0.67 85 0.34 85 0 85 C0 56.95 0 28.9 0 0 Z " fill="#757575" transform="translate(384,920)"/>
<path d="M0 0 C1.77348504 0.03810794 3.54554939 0.15569776 5.3125 0.3125 C6.76076172 0.43044922 6.76076172 0.43044922 8.23828125 0.55078125 C10.91651435 0.9864203 12.66927767 1.65713349 15 3 C17.11785113 4.11785113 17.11785113 4.11785113 20 5 C20.44988281 5.50144531 20.89976562 6.00289062 21.36328125 6.51953125 C23.58762022 8.53152282 25.23142363 8.49554699 28.1875 8.6875 C29.08855469 8.75324219 29.98960937 8.81898438 30.91796875 8.88671875 C31.60503906 8.92410156 32.29210937 8.96148438 33 9 C33 9.66 33 10.32 33 11 C24.403124 12.57829613 18.75786878 11.41015228 10.9375 7.6875 C10.00228516 7.27048828 9.06707031 6.85347656 8.10351562 6.42382812 C1.37202381 3.37202381 1.37202381 3.37202381 -1 1 C-0.67 0.67 -0.34 0.34 0 0 Z " fill="#164569" transform="translate(235,752)"/>
<path d="M0 0 C-1.91861848 4.70933627 -5.3904613 7.77166784 -9.375 10.8125 C-12.44528473 13.37107061 -14.88961525 16.23393042 -17.44921875 19.29296875 C-19 21 -19 21 -21 22 C-21 18.7 -21 15.4 -21 12 C-19.68 12 -18.36 12 -17 12 C-13.39345961 9.59563974 -13.14547068 8.05320393 -12 4 C-11.21625 4.061875 -10.4325 4.12375 -9.625 4.1875 C-8.75875 4.125625 -7.8925 4.06375 -7 4 C-6.34 3.01 -5.68 2.02 -5 1 C-2 0 -2 0 0 0 Z " fill="#19476A" transform="translate(357,740)"/>
<path d="M0 0 C0.33 0.99 0.66 1.98 1 3 C1.91523438 3.04898438 2.83046875 3.09796875 3.7734375 3.1484375 C4.96195313 3.22320313 6.15046875 3.29796875 7.375 3.375 C9.15003906 3.47941406 9.15003906 3.47941406 10.9609375 3.5859375 C14.70977393 4.09670442 15.39692557 5.39692557 18 8 C19.35515095 8.74560514 20.73270034 9.45130662 22.125 10.125 C22.84945312 10.47820313 23.57390625 10.83140625 24.3203125 11.1953125 C24.87460938 11.46085938 25.42890625 11.72640625 26 12 C26 12.66 26 13.32 26 14 C19.75887924 12.54857657 13.78668645 10.64060543 7.75 8.5 C6.86570313 8.19191406 5.98140625 7.88382813 5.0703125 7.56640625 C1.25402752 6.22321229 -2.40695927 4.87303316 -6 3 C-2.25 0 -2.25 0 0 0 Z " fill="#1B4465" transform="translate(192,733)"/>
<path d="M0 0 C0.66 1.32 1.32 2.64 2 4 C-0.57784846 6.64752004 -2.91648098 8.94432065 -6 11 C-6.72965366 13.56282742 -6.72965366 13.56282742 -7 16 C-10 17 -10 17 -12 17 C-13.38232443 18.62626404 -14.71937515 20.2925002 -16 22 C-16.99 21.01 -17.98 20.02 -19 19 C-12.73 12.73 -6.46 6.46 0 0 Z " fill="#DCE3E8" transform="translate(471,624)"/>
<path d="M0 0 C0.66 0.33 1.32 0.66 2 1 C2 1.66 2 2.32 2 3 C2.66 3.33 3.32 3.66 4 4 C3.29404824 10.35356588 -3.36715886 14.2290828 -8 18 C-8.33 17.01 -8.66 16.02 -9 15 C-9.66 15 -10.32 15 -11 15 C-10.75 13.125 -10.75 13.125 -10 11 C-8.125 9.875 -8.125 9.875 -6 9 C-5.01 8.34 -4.02 7.68 -3 7 C-3 5.68 -3 4.36 -3 3 C-1.5 1.25 -1.5 1.25 0 0 Z " fill="#133959" transform="translate(595,488)"/>
<path d="M0 0 C0.94875 0.350625 1.8975 0.70125 2.875 1.0625 C-2.67535203 7.84626359 -8.88942027 13.91772968 -15.125 20.0625 C-16.115 19.7325 -17.105 19.4025 -18.125 19.0625 C-17.320625 18.546875 -16.51625 18.03125 -15.6875 17.5 C-12.46052922 14.43044243 -12.37603743 12.41381541 -12.125 8.0625 C-10.145 7.4025 -8.165 6.7425 -6.125 6.0625 C-6.00125 5.093125 -5.8775 4.12375 -5.75 3.125 C-5.54375 2.114375 -5.3375 1.10375 -5.125 0.0625 C-3.125 -0.9375 -3.125 -0.9375 0 0 Z " fill="#113A59" transform="translate(325.125,768.9375)"/>
<path d="M0 0 C2 3.75 2 3.75 2 6 C3.65 6 5.3 6 7 6 C6.34 6.66 5.68 7.32 5 8 C-0.66639024 7.61197545 -6.01877355 6.37378434 -11.5 4.9375 C-12.22703125 4.75123047 -12.9540625 4.56496094 -13.703125 4.37304688 C-15.46987724 3.91973545 -17.23510775 3.4604998 -19 3 C-19 2.34 -19 1.68 -19 1 C-18.04738281 1.01160156 -17.09476563 1.02320313 -16.11328125 1.03515625 C-14.85902344 1.04417969 -13.60476562 1.05320312 -12.3125 1.0625 C-11.07113281 1.07410156 -9.82976563 1.08570313 -8.55078125 1.09765625 C-5.53764546 1.01478673 -2.91724661 0.70839449 0 0 Z " fill="#173F61" transform="translate(19,681)"/>
<path d="M0 0 C0.33 0 0.66 0 1 0 C1.14401022 4.5531741 1.28636397 9.10639601 1.42724609 13.65966797 C1.47530387 15.2055803 1.52379817 16.75147913 1.57275391 18.29736328 C1.64342833 20.53154058 1.71248313 22.76576326 1.78125 25 C1.80312378 25.68054443 1.82499756 26.36108887 1.84753418 27.06225586 C2.06371065 34.18955487 2.01020879 40.92853848 1 48 C0.91983702 50.6736713 0.95305591 53.32418681 1 56 C0.34 56 -0.32 56 -1 56 C-1.14704105 37.29864024 -0.76786112 18.68393981 0 0 Z " fill="#3D3D3D" transform="translate(386,1048)"/>
<path d="M0 0 C4.98115888 0.96505623 9.81543306 2.8504722 14.625 4.4375 C15.59179688 4.75009766 16.55859375 5.06269531 17.5546875 5.38476562 C18.47765625 5.68962891 19.400625 5.99449219 20.3515625 6.30859375 C21.19541504 6.58501709 22.03926758 6.86144043 22.90869141 7.14624023 C25 8 25 8 27 10 C26 11 26 11 23.3125 11.1875 C19.87374757 10.99285364 17.20497153 10.22094153 14 9 C14 8.34 14 7.68 14 7 C12.02 7 10.04 7 8 7 C7.67 6.01 7.34 5.02 7 4 C5.02 4.66 3.04 5.32 1 6 C1 5.01 1 4.02 1 3 C0.34 2.34 -0.32 1.68 -1 1 C-0.67 0.67 -0.34 0.34 0 0 Z " fill="#A6B5C0" transform="translate(183,735)"/>
<path d="M0 0 C9.78152275 1.51444341 18.72841511 7.83940943 27 13 C26.34 13.66 25.68 14.32 25 15 C23.68 15 22.36 15 21 15 C21 14.01 21 13.02 21 12 C20.34 12 19.68 12 19 12 C19 11.34 19 10.68 19 10 C17.35 10 15.7 10 14 10 C13.67 9.34 13.34 8.68 13 8 C10.69 8 8.38 8 6 8 C6.33 7.01 6.66 6.02 7 5 C4.62387135 3.39092892 4.62387135 3.39092892 2 2 C1.01 2.495 1.01 2.495 0 3 C0 2.01 0 1.02 0 0 Z " fill="#B2C2D0" transform="translate(278,774)"/>
<path d="M0 0 C0 0.99 0 1.98 0 3 C0.99 3 1.98 3 3 3 C3.33 2.01 3.66 1.02 4 0 C4.66 1.65 5.32 3.3 6 5 C6.99 4.67 7.98 4.34 9 4 C8.34 5.32 7.68 6.64 7 8 C-4.52164009 6.07289294 -4.52164009 6.07289294 -10 4 C-9.67 3.34 -9.34 2.68 -9 2 C-2.88888889 0 -2.88888889 0 0 0 Z " fill="#164165" transform="translate(76,696)"/>
<path d="M0 0 C0.99 0.33 1.98 0.66 3 1 C3.33 2.98 3.66 4.96 4 7 C3.01 7 2.02 7 1 7 C0.01 8.485 0.01 8.485 -1 10 C-1.99 9.67 -2.98 9.34 -4 9 C-4 9.66 -4 10.32 -4 11 C-4.66 11 -5.32 11 -6 11 C-6.33 11.66 -6.66 12.32 -7 13 C-8.32 12.34 -9.64 11.68 -11 11 C-7.33333333 7.33333333 -3.66666667 3.66666667 0 0 Z " fill="#C7CAD0" transform="translate(700,390)"/>
<path d="M0 0 C0.66 0 1.32 0 2 0 C2 2.66666667 2 5.33333333 2 8 C0.824375 8.0928125 0.824375 8.0928125 -0.375 8.1875 C-1.24125 8.455625 -2.1075 8.72375 -3 9 C-4.32481546 11.39529669 -4.32481546 11.39529669 -5 14 C-5.33 14.66 -5.66 15.32 -6 16 C-8.46800047 14.84826645 -10.04783565 13.95216435 -12 12 C-10.47005208 10.76302083 -8.94010417 9.52604167 -7.41015625 8.2890625 C-5.86733563 7.0333609 -5.86733563 7.0333609 -5 5 C-4.34 5 -3.68 5 -3 5 C-2.690625 4.360625 -2.38125 3.72125 -2.0625 3.0625 C-1 1 -1 1 0 0 Z " fill="#D2DAE1" transform="translate(557,536)"/>
<path d="M0 0 C4.29 0 8.58 0 13 0 C15 4 15 4 15 7 C10.82366356 8.39211215 9.21039485 6.9535579 5.3125 5.0625 C4.13300781 4.49660156 2.95351563 3.93070313 1.73828125 3.34765625 C0.83464844 2.90292969 -0.06898438 2.45820312 -1 2 C-0.67 1.34 -0.34 0.68 0 0 Z " fill="#164365" transform="translate(273,769)"/>
<path d="M0 0 C1.32 0 2.64 0 4 0 C3.42433786 3.50002578 2.2479443 5.08758995 -0.3125 7.5 C-0.93898438 8.09941406 -1.56546875 8.69882812 -2.2109375 9.31640625 C-2.80132812 9.87199219 -3.39171875 10.42757812 -4 11 C-4.804375 11.804375 -5.60875 12.60875 -6.4375 13.4375 C-6.953125 13.953125 -7.46875 14.46875 -8 15 C-8.66 14.67 -9.32 14.34 -10 14 C-9.67 11.69 -9.34 9.38 -9 7 C-7.02 7 -5.04 7 -3 7 C-2.67 5.35 -2.34 3.7 -2 2 C-1.34 2 -0.68 2 0 2 C0 1.34 0 0.68 0 0 Z " fill="#0E324F" transform="translate(457,632)"/>
<path d="M0 0 C6.29919953 0.65417591 12.29798412 1.89925753 18.4375 3.4375 C19.34693359 3.65470703 20.25636719 3.87191406 21.19335938 4.09570312 C22.05638672 4.31033203 22.91941406 4.52496094 23.80859375 4.74609375 C24.59032959 4.93872803 25.37206543 5.1313623 26.17749023 5.32983398 C28 6 28 6 29 8 C23.91872013 7.55303557 19.1976497 6.81817456 14.26171875 5.4765625 C9.5777687 4.4896162 4.76908113 4.3020418 0 4 C0 2.68 0 1.36 0 0 Z " fill="#9DABB8" transform="translate(0,684)"/>
<path d="M0 0 C0.99 0.33 1.98 0.66 3 1 C2.67 1.66 2.34 2.32 2 3 C2.33 3.66 2.66 4.32 3 5 C4.99628664 5.3548954 6.99690671 5.68578929 9 6 C12.76271186 7.52542373 12.76271186 7.52542373 14 10 C9.11899811 9.26861959 4.39975848 8.15925104 -0.375 6.9375 C-1.11105469 6.75123047 -1.84710938 6.56496094 -2.60546875 6.37304688 C-4.40419444 5.91752543 -6.20217529 5.4590645 -8 5 C-4.25 3 -4.25 3 -2 3 C-2 2.34 -2 1.68 -2 1 C-1.34 0.67 -0.68 0.34 0 0 Z " fill="#1F4562" transform="translate(50,689)"/>
<path d="M0 0 C6.625 -0.125 6.625 -0.125 10 1 C10.6875 3.0625 10.6875 3.0625 11 5 C8.11591611 6.36993985 5.99024715 7.2431252 2.8203125 6.46484375 C0.85249013 5.71202914 -1.07742824 4.86184251 -3 4 C-2.67 3.34 -2.34 2.68 -2 2 C-1.34 2 -0.68 2 0 2 C0 1.34 0 0.68 0 0 Z " fill="#1A4366" transform="translate(221,744)"/>
<path d="M0 0 C0.66 0 1.32 0 2 0 C2.33 1.98 2.66 3.96 3 6 C1.329375 6.309375 1.329375 6.309375 -0.375 6.625 C-4.26599195 7.61628301 -4.26599195 7.61628301 -5.4375 11.125 C-5.623125 12.07375 -5.80875 13.0225 -6 14 C-8.97 13.505 -8.97 13.505 -12 13 C-8.60271539 8.84387175 -5.27000859 5.29400663 -1 2 C-0.67 1.34 -0.34 0.68 0 0 Z " fill="#CFD1D3" transform="translate(637,457)"/>
<path d="M0 0 C0.33 0 0.66 0 1 0 C1 5.28 1 10.56 1 16 C1.66 16 2.32 16 3 16 C2.7525 16.82564453 2.7525 16.82564453 2.5 17.66796875 C1.93545356 20.30104864 1.94042172 22.62030658 2 25.3125 C2.07186151 32.57949551 1.55405597 39.75769696 1 47 C0.67 47 0.34 47 0 47 C0 31.49 0 15.98 0 0 Z " fill="#494949" transform="translate(385,968)"/>
<path d="M0 0 C5.92909506 0.5861719 11.31580266 1.80404381 17 3.5625 C17.77472656 3.79646484 18.54945312 4.03042969 19.34765625 4.27148438 C21.2335214 4.84190038 23.1170209 5.42012803 25 6 C25 6.33 25 6.66 25 7 C22.03 7 19.06 7 16 7 C16 6.34 16 5.68 16 5 C15.38511719 4.93941406 14.77023438 4.87882813 14.13671875 4.81640625 C12.92435547 4.69072266 12.92435547 4.69072266 11.6875 4.5625 C10.88699219 4.48128906 10.08648437 4.40007813 9.26171875 4.31640625 C7 4 7 4 4 3 C1.85744207 3.38932856 1.85744207 3.38932856 0 4 C0 2.68 0 1.36 0 0 Z " fill="#A3B0BB" transform="translate(64,700)"/>
<path d="M0 0 C5.46737191 1.74807129 10.75824848 3.65794081 16 6 C15 7.5 15 7.5 13 9 C10.28153765 9.27345479 7.74322801 9.13491285 5 9 C5.66 7.68 6.32 6.36 7 5 C5.5459375 4.5978125 5.5459375 4.5978125 4.0625 4.1875 C3.051875 3.795625 2.04125 3.40375 1 3 C0.67 2.01 0.34 1.02 0 0 Z " fill="#B4BFCC" transform="translate(259,765)"/>
<path d="M0 0 C-1.65863505 4.32504836 -4.871041 7.09418825 -8.125 10.25 C-8.68832031 10.80429687 -9.25164063 11.35859375 -9.83203125 11.9296875 C-11.21686028 13.29104485 -12.60783204 14.64614859 -14 16 C-14.33 15.34 -14.66 14.68 -15 14 C-14.34 13.01 -13.68 12.02 -13 11 C-12.36707617 8.88719655 -12.36707617 8.88719655 -12 7 C-10.68 7 -9.36 7 -8 7 C-7.67 6.34 -7.34 5.68 -7 5 C-2.35714286 0 -2.35714286 0 0 0 Z " fill="#183850" transform="translate(528,565)"/>
<path d="M0 0 C0 1.32 0 2.64 0 4 C2.475 4.99 2.475 4.99 5 6 C4.67 6.66 4.34 7.32 4 8 C2.3733152 7.71788123 0.74867104 7.42397625 -0.875 7.125 C-1.77992188 6.96257813 -2.68484375 6.80015625 -3.6171875 6.6328125 C-6 6 -6 6 -8 4 C-7.34 4 -6.68 4 -6 4 C-5.67 3.01 -5.34 2.02 -5 1 C-3 0 -3 0 0 0 Z " fill="#1E4668" transform="translate(163,721)"/>
<path d="M0 0 C2.475 0.99 2.475 0.99 5 2 C1.6189962 6.13621084 -1.66590534 9.81316569 -6 13 C-6.66 11.68 -7.32 10.36 -8 9 C-7.38125 8.54625 -6.7625 8.0925 -6.125 7.625 C-3.94080167 6.02891081 -3.94080167 6.02891081 -2 4 C-1.34 3.67 -0.68 3.34 0 3 C0 2.01 0 1.02 0 0 Z " fill="#1A3D59" transform="translate(581,505)"/>
<path d="M0 0 C-0.93274109 1.12894876 -1.87140122 2.25300876 -2.8125 3.375 C-3.33457031 4.00148438 -3.85664063 4.62796875 -4.39453125 5.2734375 C-6 7 -6 7 -9 9 C-9.66 8.34 -10.32 7.68 -11 7 C-10.67 6.34 -10.34 5.68 -10 5 C-9.34 5 -8.68 5 -8 5 C-8.33 3.35 -8.66 1.7 -9 0 C-5.5657338 -0.85856655 -3.38317487 -0.97591583 0 0 Z " fill="#184463" transform="translate(393,704)"/>
<path d="M0 0 C0.66 0 1.32 0 2 0 C2.33 0.99 2.66 1.98 3 3 C0.03 5.97 -2.94 8.94 -6 12 C-6.99 11.34 -7.98 10.68 -9 10 C-7.04297546 6.08595092 -4.11979807 3.37326602 0 2 C0 1.34 0 0.68 0 0 Z " fill="#1E3F5E" transform="translate(489,601)"/>
<path d="M0 0 C0 1.65 0 3.3 0 5 C-0.33 4.34 -0.66 3.68 -1 3 C-1.66 3 -2.32 3 -3 3 C-3 3.66 -3 4.32 -3 5 C-4.47695491 6.28430862 -5.95806138 7.56580708 -7.4921875 8.78125 C-9.13813095 10.06784671 -9.13813095 10.06784671 -11 12 C-11.33 9.69 -11.66 7.38 -12 5 C-11.01 4.34 -10.02 3.68 -9 3 C-9 3.66 -9 4.32 -9 5 C-8.4225 4.54625 -7.845 4.0925 -7.25 3.625 C-2.23076923 0 -2.23076923 0 0 0 Z " fill="#083A64" transform="translate(492,598)"/>
<path d="M0 0 C1.77007714 -0.08114106 3.54122098 -0.13925505 5.3125 -0.1875 C6.29863281 -0.22230469 7.28476563 -0.25710938 8.30078125 -0.29296875 C11 0 11 0 12.85546875 1.38671875 C14 3 14 3 14 5 C13.05125 4.814375 12.1025 4.62875 11.125 4.4375 C8.10131207 3.71313368 8.10131207 3.71313368 6 5 C3.98072489 4.39421747 1.97746603 3.73080266 0 3 C0 2.01 0 1.02 0 0 Z " fill="#1A4668" transform="translate(173,729)"/>
<path d="M0 0 C0.97748402 3.04106139 1.29779422 5.03361322 0 8 C-2.5625 10.25 -2.5625 10.25 -5 12 C-5 8.7 -5 5.4 -5 2 C-3.68 1.67 -2.36 1.34 -1 1 C-0.67 0.67 -0.34 0.34 0 0 Z " fill="#0C375B" transform="translate(645,440)"/>
<path d="M0 0 C0 3.52398786 -0.55115107 4.01504367 -2.8125 6.5625 C-3.33457031 7.16191406 -3.85664062 7.76132812 -4.39453125 8.37890625 C-6 10 -6 10 -9 12 C-9.33 12.99 -9.66 13.98 -10 15 C-12.347502 17.03450173 -14.02363 18.00787667 -17 19 C-15.60652624 15.84795019 -13.97514921 13.73828227 -11.5234375 11.328125 C-10.51796875 10.33232422 -10.51796875 10.33232422 -9.4921875 9.31640625 C-8.79351563 8.63449219 -8.09484375 7.95257813 -7.375 7.25 C-6.66859375 6.55261719 -5.9621875 5.85523438 -5.234375 5.13671875 C-3.49401297 3.41987512 -1.74915019 1.70788168 0 0 Z " fill="#D5E2ED" transform="translate(593,500)"/>
<path d="M0 0 C0.99 0 1.98 0 3 0 C3.66 0.99 4.32 1.98 5 3 C2.69 5.31 0.38 7.62 -2 10 C-2.66 9.67 -3.32 9.34 -4 9 C-2.25 2.25 -2.25 2.25 0 0 Z " fill="#1E4665" transform="translate(331,760)"/>
<path d="M0 0 C4.05819183 0.65503282 7.53971282 1.94559121 11.3125 3.5625 C12.38113281 4.01753906 13.44976562 4.47257813 14.55078125 4.94140625 C15.76314453 5.46541016 15.76314453 5.46541016 17 6 C17 6.33 17 6.66 17 7 C13.7 7 10.4 7 7 7 C6.67 5.68 6.34 4.36 6 3 C3.69 2.67 1.38 2.34 -1 2 C-0.67 1.34 -0.34 0.68 0 0 Z " fill="#ADBDCB" transform="translate(233,754)"/>
<path d="M0 0 C0.66 0.33 1.32 0.66 2 1 C2.625 3.5625 2.625 3.5625 3 6 C2.34 6 1.68 6 1 6 C0.01 6.5259375 0.01 6.5259375 -1 7.0625 C-1.66 7.371875 -2.32 7.68125 -3 8 C-3.66 7.67 -4.32 7.34 -5 7 C-4.60196439 4.11424181 -4.20990931 3.17810487 -1.9375 1.25 C-1.298125 0.8375 -0.65875 0.425 0 0 Z " fill="#CCD3DA" transform="translate(653,439)"/>
<path d="M0 0 C0.94875 0.350625 1.8975 0.70125 2.875 1.0625 C-1.43269231 6.84711538 -1.43269231 6.84711538 -4.9375 7.9375 C-6.0203125 7.999375 -6.0203125 7.999375 -7.125 8.0625 C-6.795 7.485 -6.465 6.9075 -6.125 6.3125 C-4.85424102 3.86366138 -4.85424102 3.86366138 -5.125 0.0625 C-3.125 -0.9375 -3.125 -0.9375 0 0 Z " fill="#114366" transform="translate(325.125,768.9375)"/>
<path d="M0 0 C-2.15381444 5.28663545 -6.42236838 8.77870367 -11 12 C-11.33 11.01 -11.66 10.02 -12 9 C-11.01 9 -10.02 9 -9 9 C-9 7.68 -9 6.36 -9 5 C-6.38245759 1.84089709 -4.27637075 0 0 0 Z " fill="#264A64" transform="translate(357,740)"/>
<path d="M0 0 C0.99 0.33 1.98 0.66 3 1 C0.36 3.64 -2.28 6.28 -5 9 C-5.99 8.67 -6.98 8.34 -8 8 C-7.67 7.34 -7.34 6.68 -7 6 C-7.33 5.67 -7.66 5.34 -8 5 C-7.34 4.67 -6.68 4.34 -6 4 C-6 3.34 -6 2.68 -6 2 C-4.7934375 1.7834375 -4.7934375 1.7834375 -3.5625 1.5625 C-1.07896294 1.25864751 -1.07896294 1.25864751 0 0 Z " fill="#21425C" transform="translate(542,549)"/>
<path d="M0 0 C3.5786304 1.65167557 6.74820188 3.78286492 10 6 C6.09644308 7.95177846 1.08025075 6.14247021 -3 5 C-2.01 3.35 -1.02 1.7 0 0 Z " fill="#D3D3D3" transform="translate(340,809)"/>
<path d="M0 0 C2.95294288 0.64367519 5.48281988 1.59277161 8.1875 2.9375 C8.88230469 3.27652344 9.57710938 3.61554687 10.29296875 3.96484375 C12 5 12 5 13 7 C11.02 7.33 9.04 7.66 7 8 C7 7.01 7 6.02 7 5 C6.34 5 5.68 5 5 5 C5 4.34 5 3.68 5 3 C3.35 3 1.7 3 0 3 C0 2.01 0 1.02 0 0 Z " fill="#BCC9D6" transform="translate(292,781)"/>
<path d="M0 0 C0.66 0.33 1.32 0.66 2 1 C2 2.32 2 3.64 2 5 C1.34 5 0.68 5 0 5 C-0.33 5.99 -0.66 6.98 -1 8 C-1.99 8 -2.98 8 -4 8 C-4 7.01 -4 6.02 -4 5 C-3.34 5 -2.68 5 -2 5 C-1.34 3.35 -0.68 1.7 0 0 Z M-5 8 C-5 8.99 -5 9.98 -5 11 C-5.99 11.66 -6.98 12.32 -8 13 C-6.125 9.125 -6.125 9.125 -5 8 Z " fill="#E8EAE6" transform="translate(416,683)"/>
<path d="M0 0 C0.66 1.32 1.32 2.64 2 4 C0.90536178 5.17561146 -0.20107186 6.3402489 -1.3125 7.5 C-1.92738281 8.1496875 -2.54226563 8.799375 -3.17578125 9.46875 C-5 11 -5 11 -8 11 C-8 10.34 -8 9.68 -8 9 C-7.01 9 -6.02 9 -5 9 C-4.87625 7.88625 -4.87625 7.88625 -4.75 6.75 C-3.8603054 3.48778646 -2.51496251 2.19045122 0 0 Z " fill="#143C56" transform="translate(476,614)"/>
<path d="M0 0 C0.33 0.99 0.66 1.98 1 3 C-0.74674399 4.74674399 -2.52624887 6.25472758 -4.4375 7.8125 C-7.3281889 10.2635633 -9.28567057 12.57134115 -11 16 C-11.99 15.34 -12.98 14.68 -14 14 C-9.38 9.38 -4.76 4.76 0 0 Z " fill="#CFDDE9" transform="translate(636,456)"/>
<path d="M0 0 C1 2 1 2 0.3125 4.5 C-1.15567038 7.29651501 -2.09303901 7.93411431 -5 9 C-5 9.66 -5 10.32 -5 11 C-5.66 11 -6.32 11 -7 11 C-7.33 10.01 -7.66 9.02 -8 8 C-5.36 5.36 -2.72 2.72 0 0 Z " fill="#BFCBD6" transform="translate(711,379)"/>
<path d="M0 0 C0 0.99 0 1.98 0 3 C-0.99 3 -1.98 3 -3 3 C-2.01 2.01 -1.02 1.02 0 0 Z M-4 4 C-3.34 4.33 -2.68 4.66 -2 5 C-1.375 7.5625 -1.375 7.5625 -1 10 C-2.98 10.33 -4.96 10.66 -7 11 C-6.67 9.35 -6.34 7.7 -6 6 C-5.34 6 -4.68 6 -4 6 C-4 5.34 -4 4.68 -4 4 Z " fill="#E9E7E5" transform="translate(377,725)"/>
<path d="M0 0 C3 3.75 3 3.75 3 6 C1.02 6.33 -0.96 6.66 -3 7 C-3.33 6.34 -3.66 5.68 -4 5 C-3.67 4.01 -3.34 3.02 -3 2 C-4.65 2 -6.3 2 -8 2 C-8 1.67 -8 1.34 -8 1 C-5.36 0.67 -2.72 0.34 0 0 Z " fill="#AAADB0" transform="translate(163,728)"/>
<path d="M0 0 C1.15941038 3.47823115 0.70820884 5.45895578 0 9 C-1.32 9 -2.64 9 -4 9 C-4.25 6.75 -4.25 6.75 -4 4 C-2 1.6875 -2 1.6875 0 0 Z " fill="#D4DAE1" transform="translate(599,494)"/>
<path d="M0 0 C2.31 0 4.62 0 7 0 C6.34 2.31 5.68 4.62 5 7 C2.525 6.01 2.525 6.01 0 5 C0 3.35 0 1.7 0 0 Z " fill="#123C60" transform="translate(601,481)"/>
<path d="M0 0 C0.66 0.33 1.32 0.66 2 1 C0.68 3.31 -0.64 5.62 -2 8 C-4.97 7.505 -4.97 7.505 -8 7 C-5.42215154 4.35247996 -3.08351902 2.05567935 0 0 Z " fill="#143756" transform="translate(617,471)"/>
<path d="M0 0 C2.375 -0.1875 2.375 -0.1875 5 0 C5.66 0.99 6.32 1.98 7 3 C4.03 5.475 4.03 5.475 1 8 C-0.02852708 4.91441876 0 3.22643349 0 0 Z " fill="#154262" transform="translate(376,712)"/>
<path d="M0 0 C0.66 1.32 1.32 2.64 2 4 C3.65 4 5.3 4 7 4 C6.34 4.66 5.68 5.32 5 6 C-2.18421053 5.54385965 -2.18421053 5.54385965 -6 3 C-5.01 3 -4.02 3 -3 3 C-3 2.34 -3 1.68 -3 1 C-2.01 0.67 -1.02 0.34 0 0 Z " fill="#1F4665" transform="translate(19,683)"/>
<path d="M0 0 C0.99 0.99 1.98 1.98 3 3 C2.21625 3.598125 1.4325 4.19625 0.625 4.8125 C-2.14574323 6.91085249 -2.14574323 6.91085249 -4 10 C-4.99 9.01 -5.98 8.02 -7 7 C-4.69 4.69 -2.38 2.38 0 0 Z " fill="#CBD8E1" transform="translate(459,636)"/>
<path d="M0 0 C0.8125 1.6875 0.8125 1.6875 1 4 C-1.4375 6.75 -1.4375 6.75 -4 9 C-4.66 7.35 -5.32 5.7 -6 4 C-4.02 2.68 -2.04 1.36 0 0 Z " fill="#1B445F" transform="translate(399,693)"/>
<path d="M0 0 C0 3.93169105 -1.39419615 5.16427228 -4 8 C-4.66 8 -5.32 8 -6 8 C-6.2475 8.61875 -6.495 9.2375 -6.75 9.875 C-8.20628639 12.35068687 -9.37812506 12.95125002 -12 14 C-10.41332422 10.09714233 -7.86649519 7.66479018 -4.875 4.75 C-3.96492187 3.85796875 -3.05484375 2.9659375 -2.1171875 2.046875 C-1.41851563 1.37140625 -0.71984375 0.6959375 0 0 Z " fill="#CEDBE6" transform="translate(735,355)"/>
<path d="M0 0 C0.99 0 1.98 0 3 0 C3 1.65 3 3.3 3 5 C2.01 5.495 2.01 5.495 1 6 C-0.13350534 8.01669827 -0.13350534 8.01669827 -1 10 C-1.66 9.67 -2.32 9.34 -3 9 C-2.01 6.03 -1.02 3.06 0 0 Z " fill="#0C3E61" transform="translate(345,744)"/>
<path d="M0 0 C0 0.99 0 1.98 0 3 C-1.33333333 4.33333333 -2.66666667 5.66666667 -4 7 C-4 7.99 -4 8.98 -4 10 C-4.78375 10.28875 -5.5675 10.5775 -6.375 10.875 C-9.09671632 11.84912254 -9.09671632 11.84912254 -11 14 C-10.52590352 9.68269587 -7.96603297 7.66352539 -4.9375 4.75 C-4.01839844 3.85796875 -3.09929687 2.9659375 -2.15234375 2.046875 C-1.44207031 1.37140625 -0.73179687 0.6959375 0 0 Z " fill="#E2F1F9" transform="translate(396,701)"/>
<path d="M0 0 C0 4.0333534 -1.60879918 5.83517538 -4 9 C-4.66 9 -5.32 9 -6 9 C-6.33 9.99 -6.66 10.98 -7 12 C-7.99 11.34 -8.98 10.68 -10 10 C-6.7 6.7 -3.4 3.4 0 0 Z " fill="#C0D2DD" transform="translate(409,687)"/>
<path d="M0 0 C-0.35049575 3.24208567 -0.56221181 4.61527704 -3.0625 6.8125 C-3.701875 7.204375 -4.34125 7.59625 -5 8 C-5.33 6.02 -5.66 4.04 -6 2 C-3 0 -3 0 0 0 Z " fill="#1B3F5E" transform="translate(553,538)"/>
<path d="M0 0 C0.66 0.99 1.32 1.98 2 3 C-0.97 5.475 -0.97 5.475 -4 8 C-4.66 5.69 -5.32 3.38 -6 1 C-3.03 1.495 -3.03 1.495 0 2 C0 1.34 0 0.68 0 0 Z " fill="#143956" transform="translate(630,458)"/>
<path d="M0 0 C1 2 1 2 0.44140625 4.1640625 C0.15136719 4.97617187 -0.13867188 5.78828125 -0.4375 6.625 C-0.72496094 7.44226563 -1.01242187 8.25953125 -1.30859375 9.1015625 C-1.65083984 10.04128906 -1.65083984 10.04128906 -2 11 C-3.65 10.67 -5.3 10.34 -7 10 C-6.01 9.1028125 -6.01 9.1028125 -5 8.1875 C-2.6626154 6.12498166 -2.6626154 6.12498166 -3 3 C-1.5 1.3125 -1.5 1.3125 0 0 Z " fill="#CED0D3" transform="translate(680,413)"/>
<path d="M0 0 C0.66 0.33 1.32 0.66 2 1 C0.96501431 4.10495707 0.21350711 4.78649289 -2 7 C-3.17574711 9.09989652 -3.17574711 9.09989652 -4 11 C-4.66 9.68 -5.32 8.36 -6 7 C-4.02 4.69 -2.04 2.38 0 0 Z " fill="#DAE5EF" transform="translate(330,768)"/>
<path d="M0 0 C-2 2 -2 2 -4 3 C-5.05696261 3.83516476 -6.09749244 4.69135228 -7.125 5.5625 C-8.07375 6.366875 -9.0225 7.17125 -10 8 C-9.47731534 5.23723823 -8.89130413 2.6739124 -8 0 C-4.71303767 -0.79953138 -3.28976808 -1.09658936 0 0 Z " fill="#114269" transform="translate(377,720)"/>
<path d="M0 0 C0 0.66 0 1.32 0 2 C0.66 2.33 1.32 2.66 2 3 C-2.25061356 4.41687119 -4.71851625 3.19320039 -9 2 C-8 0 -8 0 -6.1875 -0.6875 C-3.81180233 -1.02688538 -2.26664171 -0.72856341 0 0 Z " fill="#1A4365" transform="translate(154,721)"/>
<path d="M0 0 C1.1875 1.6875 1.1875 1.6875 2 4 C0.625 6.75 0.625 6.75 -1 9 C-2.65 8.67 -4.3 8.34 -6 8 C-5.67 7.34 -5.34 6.68 -5 6 C-4.34 6 -3.68 6 -3 6 C-2.690625 5.38125 -2.38125 4.7625 -2.0625 4.125 C-1.375 2.75 -0.6875 1.375 0 0 Z " fill="#E5E4E5" transform="translate(397,701)"/>
<path d="M0 0 C0.99 0.33 1.98 0.66 3 1 C2.67 1.66 2.34 2.32 2 3 C2.33 3.66 2.66 4.32 3 5 C-4.625 6.25 -4.625 6.25 -8 4 C-6.02 3.67 -4.04 3.34 -2 3 C-2 2.34 -2 1.68 -2 1 C-1.34 0.67 -0.68 0.34 0 0 Z " fill="#104168" transform="translate(50,689)"/>
<path d="M0 0 C4.62 0.99 9.24 1.98 14 3 C8.96559384 5.51720308 7.37458686 5.21361639 2 4 C1.34 2.68 0.68 1.36 0 0 Z " fill="#90A3AD" transform="translate(28,690)"/>
<path d="M0 0 C0.33 0 0.66 0 1 0 C1.08886184 3.19902639 0.91058531 5.92677456 0 9 C-1.9375 8.6875 -1.9375 8.6875 -4 8 C-4.33 7.01 -4.66 6.02 -5 5 C-4 3 -4 3 -1 2 C-0.67 1.34 -0.34 0.68 0 0 Z " fill="#CDCFCD" transform="translate(687,406)"/>
<path d="M0 0 C6.625 -0.125 6.625 -0.125 10 1 C10.33 1.99 10.66 2.98 11 4 C9.02 4.33 7.04 4.66 5 5 C5 4.34 5 3.68 5 3 C3.02 3 1.04 3 -1 3 C-0.67 2.01 -0.34 1.02 0 0 Z " fill="#0B3F6B" transform="translate(221,744)"/>
<path d="M0 0 C2.64 0 5.28 0 8 0 C7.071875 0.86625 7.071875 0.86625 6.125 1.75 C4.18652947 3.80249821 3.09985751 5.43366582 2 8 C1.01 8 0.02 8 -1 8 C-0.649375 7.05125 -0.29875 6.1025 0.0625 5.125 C1.35026777 2.12939828 1.35026777 2.12939828 0 0 Z " fill="#093A5F" transform="translate(520,563)"/>
<path d="M0 0 C0.66 0 1.32 0 2 0 C2.33 1.32 2.66 2.64 3 4 C1.35 5.32 -0.3 6.64 -2 8 C-2.66 7.01 -3.32 6.02 -4 5 C-2.71937515 3.2925002 -1.38232443 1.62626404 0 0 Z " fill="#153454" transform="translate(677,408)"/>
<path d="M0 0 C4.455 0.99 4.455 0.99 9 2 C9 2.66 9 3.32 9 4 C9.66 4.33 10.32 4.66 11 5 C11 5.66 11 6.32 11 7 C7 7 7 7 5.5 5.625 C5.005 5.08875 4.51 4.5525 4 4 C1.90010348 2.82425289 1.90010348 2.82425289 0 2 C0 1.34 0 0.68 0 0 Z " fill="#99A5AF" transform="translate(97,708)"/>
<path d="M0 0 C0.99 0 1.98 0 3 0 C3.33 1.98 3.66 3.96 4 6 C3.01 6.66 2.02 7.32 1 8 C0.34 7.67 -0.32 7.34 -1 7 C-0.67 4.69 -0.34 2.38 0 0 Z " fill="#1A4162" transform="translate(448,639)"/>
<path d="M0 0 C0.33 0.99 0.66 1.98 1 3 C-0.3125 5.1875 -0.3125 5.1875 -2 7 C-2.66 7 -3.32 7 -4 7 C-5.56266521 8.099763 -5.56266521 8.099763 -7.125 9.5 C-8.07375 10.325 -9.0225 11.15 -10 12 C-8.52278578 8.54798361 -6.56205999 6.35038064 -3.875 3.75 C-3.15054688 3.04359375 -2.42609375 2.3371875 -1.6796875 1.609375 C-1.12539063 1.07828125 -0.57109375 0.5471875 0 0 Z " fill="#DAE8F3" transform="translate(536,558)"/>
<path d="M0 0 C1.98 0 3.96 0 6 0 C5.6875 1.875 5.6875 1.875 5 4 C4.01 4.66 3.02 5.32 2 6 C1.34 5.34 0.68 4.68 0 4 C0 2.68 0 1.36 0 0 Z " fill="#103E64" transform="translate(416,672)"/>
<path d="M0 0 C0.763125 0.20625 1.52625 0.4125 2.3125 0.625 C2.3125 1.285 2.3125 1.945 2.3125 2.625 C3.3025 2.955 4.2925 3.285 5.3125 3.625 C3.14282311 4.57965783 1.74921207 4.76901212 -0.51171875 4.0234375 C-2.2559743 3.26629615 -3.97377131 2.44890802 -5.6875 1.625 C-2.6875 -0.375 -2.6875 -0.375 0 0 Z " fill="#1D456A" transform="translate(266.6875,764.375)"/>
<path d="M0 0 C0 0.66 0 1.32 0 2 C-1.60568666 1.71682074 -3.20952047 1.42312209 -4.8125 1.125 C-5.70582031 0.96257813 -6.59914063 0.80015625 -7.51953125 0.6328125 C-10 0 -10 0 -13 -2 C-8.24614684 -3.58461772 -4.64853468 -1.58472773 0 0 Z " fill="#274B67" transform="translate(128,715)"/>
<path d="M0 0 C1.0725 0.53625 2.145 1.0725 3.25 1.625 C3.25 2.285 3.25 2.945 3.25 3.625 C1.991875 3.50125 0.73375 3.3775 -0.5625 3.25 C-1.62404297 3.14558594 -1.62404297 3.14558594 -2.70703125 3.0390625 C-4.75 2.625 -4.75 2.625 -7.75 0.625 C-4.61227723 -1.75966931 -3.83407554 -1.4058277 0 0 Z " fill="#274C68" transform="translate(90.75,703.375)"/>
<path d="M0 0 C2 2 2 2 2 5 C1.01 5 0.02 5 -1 5 C-1 5.99 -1 6.98 -1 8 C-2.32 8 -3.64 8 -5 8 C-3.62845496 5.04590299 -2.01136276 2.55991624 0 0 Z " fill="#123E66" transform="translate(510,576)"/>
<path d="M0 0 C0.66 0.33 1.32 0.66 2 1 C-3.64873418 8.15506329 -3.64873418 8.15506329 -9 9 C-9 8.34 -9 7.68 -9 7 C-7.03125 5.2734375 -7.03125 5.2734375 -4.5 3.375 C-3.6646875 2.74335937 -2.829375 2.11171875 -1.96875 1.4609375 C-1.3190625 0.97882812 -0.669375 0.49671875 0 0 Z " fill="#D9DCDE" transform="translate(546,551)"/>
<path d="M0 0 C0.99 0.33 1.98 0.66 3 1 C2.625 3.4375 2.625 3.4375 2 6 C1.01 6.495 1.01 6.495 0 7 C-0.99 6.34 -1.98 5.68 -3 5 C-3 4.34 -3 3.68 -3 3 C-2.34 3 -1.68 3 -1 3 C-0.67 2.01 -0.34 1.02 0 0 Z " fill="#D3D3D0" transform="translate(669,425)"/>
<path d="M0 0 C6.4 -0.36923077 6.4 -0.36923077 9.4375 1.5 C9.953125 1.995 10.46875 2.49 11 3 C6.25 4.125 6.25 4.125 4 3 C4 2.34 4 1.68 4 1 C2.68 0.67 1.36 0.34 0 0 Z " fill="#0F3D5F" transform="translate(124,714)"/>
<path d="M0 0 C0.66 0.33 1.32 0.66 2 1 C2.66 1 3.32 1 4 1 C2.50902342 4.7952131 0.24299151 6.61042731 -3 9 C-2.5359375 7.88625 -2.5359375 7.88625 -2.0625 6.75 C-1.1905075 4.49307824 -0.52332993 2.3549847 0 0 Z " fill="#10324D" transform="translate(516,572)"/>
<path d="M0 0 C0 1.32 0 2.64 0 4 C0.66 4.33 1.32 4.66 2 5 C-0.64 4.67 -3.28 4.34 -6 4 C-5.67 3.01 -5.34 2.02 -5 1 C-3 0 -3 0 0 0 Z " fill="#09436E" transform="translate(163,721)"/>
<path d="M0 0 C0.66 0.33 1.32 0.66 2 1 C2.625 4.0625 2.625 4.0625 3 7 C0.69 6.01 -1.62 5.02 -4 4 C-2.68 2.68 -1.36 1.36 0 0 Z " fill="#C7D4DD" transform="translate(549,545)"/>
<path d="M0 0 C0.33 0.66 0.66 1.32 1 2 C1.66 2 2.32 2 3 2 C3 1.34 3 0.68 3 0 C3.99 0.33 4.98 0.66 6 1 C4.35830472 3.02054804 2.69088222 5.02043058 1 7 C0.67 7 0.34 7 0 7 C0 4.69 0 2.38 0 0 Z " fill="#203F57" transform="translate(634,451)"/>
<path d="M0 0 C0.99 0.33 1.98 0.66 3 1 C2.67 1.66 2.34 2.32 2 3 C2.33 3.99 2.66 4.98 3 6 C2.01 6 1.02 6 0 6 C0 5.34 0 4.68 0 4 C-0.66 4 -1.32 4 -2 4 C-2.33 4.66 -2.66 5.32 -3 6 C-2.42655063 3.13275314 -2.1385485 2.1385485 0 0 Z " fill="#D1D3D6" transform="translate(645,449)"/>
<path d="M0 0 C1.32 0 2.64 0 4 0 C4.33 1.65 4.66 3.3 5 5 C4.34 5 3.68 5 3 5 C2.34 5.66 1.68 6.32 1 7 C0 6 0 6 -0.0625 2.9375 C-0.041875 1.968125 -0.02125 0.99875 0 0 Z " fill="#093559" transform="translate(632,448)"/>
<path d="M0 0 C1.32 0 2.64 0 4 0 C4.66 1.32 5.32 2.64 6 4 C5.01 4.66 4.02 5.32 3 6 C2.01 5.67 1.02 5.34 0 5 C0 3.35 0 1.7 0 0 Z " fill="#113452" transform="translate(666,416)"/>
<path d="M0 0 C1.2077558 3.62326739 0.54311128 4.64146369 -1 8 C-2.65 7.67 -4.3 7.34 -6 7 C-4.02 4.69 -2.04 2.38 0 0 Z " fill="#BAC5D1" transform="translate(695,395)"/>
<path d="M0 0 C2.00720923 0.28674418 4.0085944 0.61866701 6 1 C6 2.32 6 3.64 6 5 C4.68 5 3.36 5 2 5 C2 4.01 2 3.02 2 2 C1.01 1.67 0.02 1.34 -1 1 C-0.67 0.67 -0.34 0.34 0 0 Z " fill="#08406A" transform="translate(202,737)"/>
<path d="M0 0 C-2 3 -2 3 -5 4 C-5.99 3.34 -6.98 2.68 -8 2 C-7 0 -7 0 -5.125 -0.6875 C-3 -1 -3 -1 0 0 Z " fill="#144466" transform="translate(42,689)"/>
<path d="M0 0 C0.66 0.33 1.32 0.66 2 1 C2 1.66 2 2.32 2 3 C2.66 3.33 3.32 3.66 4 4 C2.68 4.99 1.36 5.98 0 7 C-0.99 6.01 -1.98 5.02 -3 4 C-2.01 2.68 -1.02 1.36 0 0 Z " fill="#0B385E" transform="translate(595,488)"/>
<path d="M0 0 C2.475 0.495 2.475 0.495 5 1 C5 1.99 5 2.98 5 4 C3.68 4.33 2.36 4.66 1 5 C0.67 3.35 0.34 1.7 0 0 Z " fill="#084471" transform="translate(282,769)"/>
<path d="M0 0 C0.99 0 1.98 0 3 0 C3 0.66 3 1.32 3 2 C2.34 2 1.68 2 1 2 C1 3.65 1 5.3 1 7 C0.01 7 -0.98 7 -2 7 C-1.34 4.69 -0.68 2.38 0 0 Z " fill="#104065" transform="translate(329,762)"/>
<path d="M0 0 C0.99 0.33 1.98 0.66 3 1 C0.50494038 3.49505962 -0.67328888 3.35948376 -4.125 3.625 C-5.03507812 3.69976563 -5.94515625 3.77453125 -6.8828125 3.8515625 C-7.93082031 3.92503906 -7.93082031 3.92503906 -9 4 C-8.34 3.01 -7.68 2.02 -7 1 C-3.9375 0.875 -3.9375 0.875 -1 1 C-0.67 0.67 -0.34 0.34 0 0 Z " fill="#E8EBEB" transform="translate(364,740)"/>
<path d="M0 0 C1.65 0.33 3.3 0.66 5 1 C3.35 2.65 1.7 4.3 0 6 C-1 3 -1 3 0 0 Z " fill="#244763" transform="translate(443,647)"/>
<path d="M0 0 C0.99 1.32 1.98 2.64 3 4 C1.71034824 5.37562854 0.37310707 6.70766393 -1 8 C-1.66 8 -2.32 8 -3 8 C-1.125 2.25 -1.125 2.25 0 0 Z " fill="#123A56" transform="translate(465,624)"/>
<path d="M0 0 C0.33 0.99 0.66 1.98 1 3 C-1.31 4.98 -3.62 6.96 -6 9 C-6.66 8.67 -7.32 8.34 -8 8 C-5.36 5.36 -2.72 2.72 0 0 Z " fill="#E1EEF7" transform="translate(497,598)"/>
<path d="M0 0 C0.66 0.66 1.32 1.32 2 2 C2.99 2.33 3.98 2.66 5 3 C3.68 3.99 2.36 4.98 1 6 C-0.32 5.34 -1.64 4.68 -3 4 C-2.01 2.68 -1.02 1.36 0 0 Z " fill="#1F4263" transform="translate(594,492)"/>
<path d="M0 0 C1.65 0 3.3 0 5 0 C5 0.66 5 1.32 5 2 C5.66 2 6.32 2 7 2 C7.33 3.32 7.66 4.64 8 6 C6.66402348 5.19185349 5.331275 4.37836819 4 3.5625 C3.2575 3.11003906 2.515 2.65757812 1.75 2.19140625 C1.1725 1.79824219 0.595 1.40507813 0 1 C0 0.67 0 0.34 0 0 Z " fill="#EEEEEE" transform="translate(328,800)"/>
<path d="M0 0 C0.99 0.33 1.98 0.66 3 1 C2.67 2.65 2.34 4.3 2 6 C1.01 5.67 0.02 5.34 -1 5 C-0.67 3.35 -0.34 1.7 0 0 Z " fill="#B3B4B2" transform="translate(209,746)"/>
<path d="M0 0 C3.125 0.375 3.125 0.375 6 1 C6 1.99 6 2.98 6 4 C3.36 3.34 0.72 2.68 -2 2 C-1.34 1.34 -0.68 0.68 0 0 Z " fill="#224B6A" transform="translate(198,738)"/>
<path d="M0 0 C2.8992226 0.46761655 3.86675182 0.86675182 6 3 C3.525 4.485 3.525 4.485 1 6 C1 5.01 1 4.02 1 3 C0.34 2.34 -0.32 1.68 -1 1 C-0.67 0.67 -0.34 0.34 0 0 Z " fill="#A3AEB5" transform="translate(183,735)"/>
<path d="M0 0 C-2.35953094 2.35953094 -3.77895617 2.49141413 -7 3 C-7.33 2.01 -7.66 1.02 -8 0 C-4.71023192 -1.09658936 -3.28696233 -0.79953138 0 0 Z " fill="#9AA7B0" transform="translate(155,725)"/>
<path d="M0 0 C7.75 0.75 7.75 0.75 10 3 C2.25 3.125 2.25 3.125 0 2 C0 1.34 0 0.68 0 0 Z " fill="#A1B3BF" transform="translate(128,718)"/>
<path d="M0 0 C1.65 0 3.3 0 5 0 C4.67 1.65 4.34 3.3 4 5 C2.68 4.67 1.36 4.34 0 4 C0 2.68 0 1.36 0 0 Z " fill="#113D64" transform="translate(408,680)"/>
<path d="M0 0 C1.32 0 2.64 0 4 0 C4 0.99 4 1.98 4 3 C3.360625 3.12375 2.72125 3.2475 2.0625 3.375 C1.381875 3.58125 0.70125 3.7875 0 4 C-0.33 4.66 -0.66 5.32 -1 6 C-1.66 5.67 -2.32 5.34 -3 5 C-2.67 4.01 -2.34 3.02 -2 2 C-1.34 2 -0.68 2 0 2 C0 1.34 0 0.68 0 0 Z " fill="#123E5F" transform="translate(457,632)"/>
<path d="M0 0 C-0.66 1.65 -1.32 3.3 -2 5 C-2.99 4.67 -3.98 4.34 -5 4 C-5.6875 1.9375 -5.6875 1.9375 -6 0 C-3 -1 -3 -1 0 0 Z " fill="#093C64" transform="translate(503,585)"/>
<path d="M0 0 C1.65 0 3.3 0 5 0 C5.66 1.32 6.32 2.64 7 4 C4.69 3.67 2.38 3.34 0 3 C0 2.01 0 1.02 0 0 Z " fill="#D5D6D8" transform="translate(601,492)"/>
<path d="M0 0 C2.9375 1.25 2.9375 1.25 6 3 C6.875 5.1875 6.875 5.1875 7 7 C3.535 5.02 3.535 5.02 0 3 C0 2.01 0 1.02 0 0 Z " fill="#F0F0F0" transform="translate(314,789)"/>
<path d="M0 0 C0.99 0.33 1.98 0.66 3 1 C3.6875 3.0625 3.6875 3.0625 4 5 C-0.75 4.25 -0.75 4.25 -3 2 C-2.01 2 -1.02 2 0 2 C0 1.34 0 0.68 0 0 Z " fill="#0D456D" transform="translate(183,729)"/>
<path d="M0 0 C0.66 0.33 1.32 0.66 2 1 C1.34 2.65 0.68 4.3 0 6 C-1.32 5.34 -2.64 4.68 -4 4 C-2.68 2.68 -1.36 1.36 0 0 Z " fill="#CADAE3" transform="translate(414,682)"/>
<path d="M0 0 C0 0.99 0 1.98 0 3 C-0.99 3 -1.98 3 -3 3 C-3 3.66 -3 4.32 -3 5 C-4.32 4.67 -5.64 4.34 -7 4 C-5 1 -5 1 -2.375 0.3125 C-1.59125 0.209375 -0.8075 0.10625 0 0 Z " fill="#0A3A61" transform="translate(19,681)"/>
<path d="M0 0 C0.33 0 0.66 0 1 0 C1.3125 2.75 1.3125 2.75 1 6 C-1.5 8.375 -1.5 8.375 -4 10 C-4 9.01 -4 8.02 -4 7 C-3 6 -2 5 -1 4 C-0.28552357 1.89667109 -0.28552357 1.89667109 0 0 Z " fill="#C5CCD3" transform="translate(594,498)"/>
<path d="M0 0 C0 1.65 0 3.3 0 5 C-0.66 5 -1.32 5 -2 5 C-2 5.66 -2 6.32 -2 7 C-2.66 6.67 -3.32 6.34 -4 6 C-4 3 -4 3 -2.5625 1.3125 C-1 0 -1 0 0 0 Z " fill="#BAC7D2" transform="translate(658,434)"/>
<path d="M0 0 C0.99 0.33 1.98 0.66 3 1 C3.33 2.98 3.66 4.96 4 7 C3.01 7.495 3.01 7.495 2 8 C2 7.34 2 6.68 2 6 C1.01 5.67 0.02 5.34 -1 5 C-0.67 3.35 -0.34 1.7 0 0 Z " fill="#183E5F" transform="translate(649,433)"/>
<path d="M0 0 C0.66 0 1.32 0 2 0 C1.6875 2.375 1.6875 2.375 1 5 C0.01 5.66 -0.98 6.32 -2 7 C-1.125 1.125 -1.125 1.125 0 0 Z " fill="#1C3854" transform="translate(685,401)"/>
<path d="M0 0 C0.33 0.66 0.66 1.32 1 2 C0.0625 4.625 0.0625 4.625 -1 7 C-1.99 6.67 -2.98 6.34 -4 6 C-1.125 1.125 -1.125 1.125 0 0 Z " fill="#F0EDEA" transform="translate(320,783)"/>
<path d="M0 0 C1.46015291 0.28241641 2.91809793 0.57626614 4.375 0.875 C5.18710938 1.03742187 5.99921875 1.19984375 6.8359375 1.3671875 C9 2 9 2 11 4 C7.7 3.67 4.4 3.34 1 3 C0.67 2.01 0.34 1.02 0 0 Z " fill="#A4B4C0" transform="translate(139,721)"/>
<path d="M0 0 C0.66 0.99 1.32 1.98 2 3 C-0.375 4.5625 -0.375 4.5625 -3 6 C-3.66 5.67 -4.32 5.34 -5 5 C-3.35 3.35 -1.7 1.7 0 0 Z " fill="#CEDDE7" transform="translate(471,624)"/>
<path d="M0 0 C0.66 0.66 1.32 1.32 2 2 C1.67 2.99 1.34 3.98 1 5 C0.01 5.33 -0.98 5.66 -2 6 C-2 2 -2 2 0 0 Z " fill="#DBE3E7" transform="translate(486,611)"/>
<path d="M0 0 C-1.39332574 3.36720387 -2.9789286 4.9859524 -6 7 C-5.37162381 3.35541809 -4.14650034 0 0 0 Z " fill="#2B475E" transform="translate(498,596)"/>
<path d="M0 0 C2.1875 0.3125 2.1875 0.3125 4 1 C2.75 2.5625 2.75 2.5625 1 4 C-1.1875 3.6875 -1.1875 3.6875 -3 3 C-1.75 1.4375 -1.75 1.4375 0 0 Z " fill="#1E425D" transform="translate(501,589)"/>
<path d="M0 0 C0.33 0.99 0.66 1.98 1 3 C-0.28965176 4.37562854 -1.62689293 5.70766393 -3 7 C-3.66 7 -4.32 7 -5 7 C-4.67 6.01 -4.34 5.02 -4 4 C-3.34 4 -2.68 4 -2 4 C-1.34 2.68 -0.68 1.36 0 0 Z " fill="#0E3B5F" transform="translate(544,544)"/>
<path d="M0 0 C0.66 0.33 1.32 0.66 2 1 C1.67 2.32 1.34 3.64 1 5 C-0.98 4.01 -2.96 3.02 -5 2 C-4.01 1.67 -3.02 1.34 -2 1 C-1.34 0.67 -0.68 0.34 0 0 Z " fill="#D5D5DA" transform="translate(614,483)"/>
<path d="M0 0 C0.66 0.66 1.32 1.32 2 2 C-0.97 4.475 -0.97 4.475 -4 7 C-4 5.68 -4 4.36 -4 3 C-2 1.25 -2 1.25 0 0 Z " fill="#2A465D" transform="translate(644,445)"/>
<path d="M0 0 C0.66 0.33 1.32 0.66 2 1 C0.07423885 3.43929746 -1.80090595 5.80090595 -4 8 C-4.66 7.34 -5.32 6.68 -6 6 C-4.02 4.02 -2.04 2.04 0 0 Z " fill="#D3DEE6" transform="translate(689,402)"/>
</svg>
